<?xml version="1.0" encoding="UTF-8" standalone="no"?>
<!-- Created with Inkscape (http://www.inkscape.org/) -->

<svg
   width="14.964996mm"
   height="15.667778mm"
   viewBox="0 0 14.964996 15.667778"
   version="1.1"
   id="svg5"
   xml:space="preserve"
   inkscape:version="1.2.2 (b0a8486541, 2022-12-01)"
   sodipodi:docname="YoungermasterLogo.svg"
   xmlns:inkscape="http://www.inkscape.org/namespaces/inkscape"
   xmlns:sodipodi="http://sodipodi.sourceforge.net/DTD/sodipodi-0.dtd"
   xmlns="http://www.w3.org/2000/svg"
   xmlns:svg="http://www.w3.org/2000/svg"><sodipodi:namedview
     id="namedview7"
     pagecolor="#ffffff"
     bordercolor="#000000"
     borderopacity="0.25"
     inkscape:showpageshadow="2"
     inkscape:pageopacity="0.0"
     inkscape:pagecheckerboard="0"
     inkscape:deskcolor="#d1d1d1"
     inkscape:document-units="mm"
     showgrid="false"
     inkscape:zoom="3.3008237"
     inkscape:cx="234.18397"
     inkscape:cy="211.00794"
     inkscape:window-width="1536"
     inkscape:window-height="810"
     inkscape:window-x="0"
     inkscape:window-y="0"
     inkscape:window-maximized="1"
     inkscape:current-layer="layer2" /><defs
     id="defs2" /><g
     inkscape:label="Layer 1"
     inkscape:groupmode="layer"
     id="layer1"
     transform="translate(-45.067579,-23.400958)"
     style="display:none"><g
       style="fill:none"
       id="g378"
       transform="matrix(0.26458333,0,0,0.26458333,-274.01377,-98.66786)"><path
         d="m 1206.1093,1083.6709 16.032,47.749 20.964,-10.754 -21.753,-45.135 c 0,0 -14.207,7.35 -15.243,8.14 z"
         fill="#f0403e"
         id="path177" /><path
         d="m 1309.8953,948.21693 c 26.912,-7.596 52.953,-17.996 77.691,-31.027 l 122.431,19.238 c 0,0 22.395,12.973 25.108,13.368 7.662,-0.625 15.336,1.097 22,4.932 9.027,6.265 27.08,6.265 31.767,7.054 6.766,2.187 13.232,5.221 19.237,9.027 4.686,2.763 25.503,9.422 29.054,11.79 3.552,2.367 11.74,4.932 13.713,14.798 2.758,12.12197 4.411,24.47397 4.933,36.89697 -0.395,9.027 -2.713,33.345 -6.265,42.767 -3.551,9.421 -18.843,58.453 -19.731,64.125 -0.888,5.673 -2.713,43.951 -4.932,51.844 -2.22,7.892 -12.924,49.327 -14.799,56.874 -1.874,7.547 -16.08,45.135 -18.448,51.794 -2.368,6.66 -5.919,18.843 -4.933,23.924 1.426,5.504 1.825,11.222 1.184,16.87 -0.789,6.314 4.341,37.292 2.762,39.462 -1.578,2.171 -56.529,4.686 -75.717,-1.184 -19.189,-5.87 -95.745,2.368 -126.772,0.79 -31.027,-1.579 -113.009,-2.368 -124.749,-4.933 -11.74,-2.565 -26.292,-3.108 -19.238,-10.951 7.054,-7.843 7.843,-18.843 8.238,-29.596 1.033,-9.722 2.999,-19.316 5.87,-28.66 l -24.664,-168.947 36.206,-73.991 z"
         fill="#269eef"
         id="path179" /><path
         d="m 1650.5013,899.87593 c 6.166,4.341 5.377,3.404 0,4.094 -5.376,0.691 -8.188,0.888 -8.829,4.391 -0.527,2.852 -1.336,5.643 -2.417,8.336 -0.251,-0.189 -0.486,-0.403 -0.691,-0.641 -9.866,-14.503 -2.22,-10.754 -20.323,-12.234 -3.601,0 6.314,-3.354 9.224,-9.865 1.086,-2.417 -3.995,-11.444 -1.134,-9.866 8.681,4.588 5.87,2.911 6.955,3.552 3.256,2.022 12.924,-5.919 16.623,-7.005 1.135,7.992 -7.991,12.924 0.592,19.238 z"
         fill="#ffeab6"
         id="path181" /><path
         d="m 1723.5063,746.96093 c 2.417,0.887 -4.933,3.009 -7.942,5.278 -4.932,3.65 -0.296,6.708 -0.69,11.838 -3.848,-1.628 -8.189,-9.865 -13.911,-9.865 -10.309,3.453 -10.95,4.932 -12.775,4.932 0.592,-3.699 9.273,-11.197 4.34,-15.192 -1.923,-1.48 -6.708,-8.534 -4.291,-7.991 9.569,2.219 9.52,2.663 11.345,1.381 9.619,-6.61 9.866,-16.772 11.642,-2.861 1.529,12.48 -1.579,7.547 12.282,12.48 z"
         fill="#ffeab6"
         id="path183" /><path
         d="m 1711.5203,584.47593 c -0.247,0.345 -0.444,0.789 -0.79,0.937 -12.43,6.413 -13.269,5.624 -12.529,9.866 1.875,11.69 1.431,9.865 1.135,11.888 -13.171,-11.938 -7.942,-10.408 -9.866,-10.754 -3.65,-0.542 -10.457,3.552 -17.018,4.933 -2.269,0 -1.381,-0.493 4.292,-9.865 6.264,-10.211 -24.22,-22.296 2.219,-14.799 4.933,1.431 4.045,0.74 13.023,-11.345 2.861,-3.897 1.036,13.713 7.695,14.305 2.318,0 5.525,2.762 10.803,3.946 0.39,0.242 0.74,0.542 1.036,0.888 z"
         fill="#ffeab6"
         id="path185" /><path
         d="m 1201.2763,799.24793 c 25.058,-5.623 0,2.269 5.574,11.641 4.587,8.09 6.462,7.35 -2.466,5.377 -10.359,-2.318 -5.673,-3.009 -16.426,7.893 -1.283,1.331 0.246,-4.095 0.641,-9.225 0.444,-6.116 -11.395,-8.089 -13.121,-11.296 0.838,0 -0.642,0 6.955,-0.74 9.372,-0.789 4.933,-6.067 9.027,-14.453 3.354,2.911 6.807,11.444 9.816,10.803 z"
         fill="#ffeab6"
         id="path187" /><path
         d="m 1251.6903,688.35893 c 1.233,2.072 -4.933,0 -13.664,-3.255 -4.932,-1.825 -3.798,-5.525 -15.44,10.753 -4.488,6.363 2.073,-14.009 -5.376,-16.771 -16.87,-6.314 -16.87,-4.933 1.677,-11.641 4.045,-1.48 2.121,-10.31 4.933,-17.906 17.61,16.475 2.762,15.094 28.511,9.175 -3.798,10.161 -11.691,13.071 -7.153,18.349 2.52,3.554 4.7,7.335 6.512,11.296 z"
         fill="#ffeab6"
         id="path189" /><path
         d="m 1386.2053,977.86293 c 2.318,10.951 4.587,12.233 2.022,11.839 -22.345,-3.503 -44.148,-25.601 -48.637,-44.148 -0.838,-3.503 -1.43,-3.157 2.319,-4.44 11,-3.897 16.672,-8.09 15.291,-5.623 -2.762,4.932 -0.789,11.296 -1.134,13.565 -1.283,8.533 4.636,15.735 13.17,20.273 1.135,0.592 0.74,0.494 8.287,0.987 4.933,-1.184 5.574,-1.677 6.166,0 1.106,2.421 1.948,4.949 2.516,7.547 z"
         fill="#ffc6a6"
         id="path191" /><path
         d="m 1562.0083,602.33193 c 13.515,5.673 17.314,6.561 8.188,8.83 -5.722,-1.381 -6.413,-1.48 -9.866,-8.484 -0.345,-0.888 0.74,-0.74 1.678,-0.346 z"
         fill="#e6fcff"
         id="path193" /><path
         d="m 1589.0393,600.16193 c 0.839,0 0.79,0.592 0.444,1.036 -2.022,2.713 -4.341,6.708 -8.139,4.291 -9.865,-6.363 -29.103,-9.273 -23.825,-17.511 2.171,-3.354 0.395,0.493 11.641,5.327 12.184,5.229 16.574,7.251 19.879,6.857 z"
         fill="#e6fcff"
         id="path195" /><path
         d="m 1593.0843,589.50693 c 3.009,0.296 -0.69,5.673 -5.475,5.574 -7.942,-2.762 -31.866,-11.543 -25.256,-16.771 0.789,-0.592 0.395,-2.269 1.529,-2.171 1.973,0 -0.641,2.072 12.431,7.301 13.072,5.228 14.206,5.672 16.771,6.067 z"
         fill="#e6fcff"
         id="path197" /><path
         d="m 1568.3713,565.58393 c 26.144,19.731 36.502,9.569 28.61,18.744 -1.48,1.727 -7.202,-1.184 -9.372,-1.973 -10.556,-3.897 -28.166,-9.52 -19.238,-16.771 z"
         fill="#e6fcff"
         id="path199" /><path
         d="m 1637.5283,530.51173 c 1.53,0.4439 0.395,4.0448 -0.986,3.3049 -5.229,-2.6637 -0.839,-3.8969 0.986,-3.3049 z"
         fill="#ffd152"
         id="path201" /><path
         d="m 1585.3893,516.99633 c -2.713,2.2198 -3.946,-2.0717 -2.17,-2.565 0.592,-0.148 1.627,1.7264 2.17,2.565 z"
         fill="#ffd152"
         id="path203" /><path
         d="m 1603.9863,476.64603 c 61.116,-0.3453 74.287,80.0589 10.753,87.3099 -8.287,0.986 -9.865,-1.381 -12.43,1.924 -4.637,6.56 -1.628,9.52 -5.426,8.533 -7.753,-1.981 -15.144,-5.177 -21.902,-9.471 -6.264,-3.798 4.933,-4.932 1.677,-11.986 -3.255,-7.0541 -3.403,-1.677 -8.533,-9.8657 -23.727,-37.8342 9.914,-67.8747 35.861,-66.4442 z m 30.484,62.8433 c 3.108,7.695 12.776,-10.5068 5.327,-12.9239 -7.448,-2.417 -9.421,2.8117 -10.605,2.5157 -11.444,-2.565 -4.341,-1.0852 -10.951,-4.4888 -3.058,-1.5784 -5.475,2.1211 -7.941,-1.3811 -3.897,-5.6234 -1.086,0 -19.386,-7.3005 -1.283,-0.4933 -1.973,-2.2691 -2.96,-3.4529 -0.986,-1.1839 -2.515,-1.1839 -4.341,-1.6772 -5.327,-1.4305 -8.385,9.4709 0,10.9014 0.888,0 1.53,0 1.234,1.5292 -1.875,8.0404 9.027,14.7982 6.856,18.6951 -2.947,5.6394 -5.027,11.6936 -6.166,17.9556 -0.246,1.479 1.085,0.69 1.628,1.134 2.072,1.776 3.058,-7.498 8.386,-17.5111 3.601,-6.6592 -6.857,-13.3184 -6.61,-19.0404 0.296,-7.3498 3.157,-3.157 9.865,-1.0359 3.749,1.1838 6.61,0 7.646,2.4664 0.67,1.3178 1.792,2.3517 3.157,2.9128 1.369,0.5615 2.89,0.6128 4.292,0.1455 4.538,-1.1839 3.354,2.3184 8.681,3.4529 5.328,1.1345 5.278,0.8879 5.278,2.861 0,0.6906 0,1.4305 -0.838,1.6278 -2.537,0.8653 -4.954,2.0417 -7.202,3.5023 -2.812,1.3318 -1.579,-0.9373 -6.265,2.121 -7.054,4.5875 -5.87,1.6772 -8.829,3.9956 -4.933,3.9955 -15.736,15.3901 -12.283,18.1031 3.453,2.713 3.848,-4.39 10.852,-10.803 7.005,-6.4122 5.919,-3.3046 8.287,-4.9324 4.933,-3.0583 5.623,-3.5023 6.363,-3.5516 4.243,-0.3453 7.498,-3.8969 10.704,-4.1928 4.341,-0.3947 3.207,-4.1929 4.144,-3.8969 0.937,0.296 1.332,1.4305 1.677,2.2691 z"
         fill="#ffd152"
         id="path205" /><path
         d="m 1211.6863,522.27313 c 0.775,2.563 0.753,5.3011 -0.062,7.8518 -0.815,2.5502 -2.385,4.7933 -4.503,6.4314 -2.118,1.6385 -4.684,2.5951 -7.357,2.7435 -2.674,0.1479 -5.329,-0.5188 -7.615,-1.9131 -2.286,-1.3939 -4.095,-3.4497 -5.187,-5.8942 -1.092,-2.4446 -1.417,-5.1634 -0.93,-7.7963 0.487,-2.6332 1.762,-5.056 3.656,-6.9486 1.895,-1.8925 4.319,-3.1647 6.953,-3.6494 3.196,-0.5767 6.492,0.0387 9.265,1.7298 2.773,1.6907 4.829,4.34 5.78,7.4451 z"
         fill="#9edeff"
         id="path207" /><path
         d="m 1162.8013,564.74493 c 2.17,-2.466 4.933,-4.933 6.265,-1.628 0,0 -44.839,50.117 -44.938,50.216 -3.65,-2.516 -5.081,2.614 38.673,-48.588 z"
         fill="#9edeff"
         id="path209" /><path
         d="m 1192.5463,608.35093 c 0.888,2.121 0.494,1.331 -30.583,32.112 -1.578,1.628 -0.838,1.578 -2.565,-23.135 0,-2.318 19.731,-17.758 26.094,-25.354 6.364,-7.597 4.687,-6.314 7.054,16.377 z"
         fill="#9edeff"
         id="path211" /><path
         d="m 1138.4833,544.71803 c 3.798,-0.4933 -6.955,8.2379 -14.799,20.0759 -1.775,2.565 -8.484,11.543 -11.098,11.888 0,0 -24.664,0.74 -24.664,0.592 -0.6905,-0.937 12.48,-13.516 24.664,-27.4752 1.529,-2.3184 1.529,-1.9238 25.897,-5.0807 z"
         fill="#9edeff"
         id="path213" /><path
         d="m 1258.3983,473.14423 c -0.484,6.9798 -2.014,13.847 -4.538,20.3722 -11.888,29.0046 -10.852,26.3902 -14.108,20.5696 -15.094,-26.8835 -36.009,-29.5965 -32.063,-32.0136 10.004,-7.3666 21.248,-12.8798 33.198,-16.278 18.695,-4.93271 16.623,0 17.511,7.3498 z"
         fill="#f0403e"
         id="path215" /><path
         d="m 1291.0523,931.05093 c 9.027,18.745 9.421,17.807 7.202,18.597 l -100.283,33.098 c -1.184,0 0.444,2.812 -21.852,-41.287 -1.134,-2.219 -7.103,0.79 63.287,-22.789 12.234,-4.094 23.875,-8.188 36.947,-12.48 3.354,-1.085 0.542,-4.439 14.699,24.861 z m -13.466,16.032 c -2.121,-3.651 -3.798,-1.135 -6.413,-1.036 -0.641,0 -64.52,19.731 -69.058,21.901 -2.22,0.937 -4.242,3.897 -1.529,4.588 1.036,0.246 73.202,-21.063 77,-25.453 z m -15.489,-20.817 c 1.579,-0.789 2.664,-3.551 -0.69,-4.242 -0.592,0 -4.391,1.135 -9.866,2.516 -19.484,4.933 -22.197,8.583 -27.229,8.484 -5.82,0 -5.574,2.368 -14.255,4.292 -19.731,4.39 -16.525,6.264 -21.803,6.511 -0.641,0 -1.677,1.529 -1.875,2.121 -0.444,1.776 4.933,2.812 7.498,1.381 5.485,-2.947 11.476,-4.838 17.659,-5.574 8.139,-1.43 7.843,-4.045 12.628,-3.798 9.126,-1.233 12.579,-4.933 20.866,-7.004 8.287,-2.072 10.753,-1.48 17.067,-4.687 z m -12.973,18.005 c 0.825,0.053 1.643,-0.189 2.304,-0.687 0.661,-0.501 1.121,-1.216 1.297,-2.026 0,-5.673 -19.731,3.354 -29.054,4.933 -8.484,1.43 -27.771,7.054 -30.583,10.112 -1.973,2.17 -0.888,3.403 1.776,3.551 9.865,-3.354 8.533,-3.798 12.085,-4.932 20.52,-5.772 6.412,-1.036 28.166,-7.301 9.865,-2.664 10.507,-3.65 14.009,-3.65 z"
         fill="#fff5db"
         id="path217" /><path
         d="m 1212.7683,1064.1859 c 1.48,3.009 -3.946,4.686 -7.103,5.278 -1.874,-1.233 2.269,5.624 -42.915,-85.38597 -28.906,-57.516 -28.906,-55.197 -25.946,-55.197 15.39,0.049 -8.435,-33.937 75.964,135.30497 z"
         fill="#f0403e"
         id="path219" /><path
         d="m 1147.7563,964.74193 c 54.951,111.47997 53.915,106.34997 51.547,107.18897 -29.596,10.161 -14.798,29.596 -17.857,36.255 -1.627,-2.318 -103.5873,-211.21997 -104.2779,-212.94697 0.7892,-0.296 -1.8744,-1.627 41.3369,24.171 13.861,8.287 5.82,-2.269 29.251,45.332 z"
         fill="#f0403e"
         id="path221" /><path
         d="m 1299.5863,910.08693 c -16.819,-34.875 -15.685,-32.803 -17.066,-32.309 -14.798,5.278 -92.242,30.977 -105.314,35.269 -32.211,10.654 -30.188,8.583 -28.215,12.43 75.471,147.53897 64.125,139.20197 72.758,136.88397 10.112,-0.247 3.354,16.574 3.699,17.462 0.346,0.888 2.812,7.054 4.193,6.561 2.98,-1.295 6.026,-2.434 9.126,-3.404 6.972,-1.032 13.764,-3.042 20.175,-5.969 13.811,-7.053 14.009,15.095 -3.453,23.628 -4.724,2.874 -9.797,5.126 -15.094,6.709 -0.888,0 -1.086,0.69 -0.691,1.48 3.552,7.497 2.664,6.905 4.933,6.905 26.637,0 23.48,-4.291 41.928,-8.188 5.426,-1.184 7.693,5.475 5.574,9.866 -0.493,0.986 0.345,0.888 1.379,0.592 0,0 88.79,-26.292 92.637,-27.525 3.848,-1.233 2.023,3.206 -86.569,-180.39097 z m 1.973,43.458 c -0.79,0.296 -92.537,30.731 -103.586,33.986 -4.094,-0.444 -3.305,1.776 -26.144,-45.726 -3.058,-6.314 -7.103,-3.355 105.315,-40.745 4.439,-1.48 4.242,0 10.408,12.628 16.67,34.233 20.321,37.686 14.007,39.857 z"
         fill="#f0403e"
         id="path223" /><path
         d="m 1567.5333,1198.0119 c 4.932,7.35 6.067,-4.193 -34.924,53.668 -4.444,6.014 -9.253,11.748 -14.404,17.166 -6.955,8.04 -12.529,17.018 -23.529,25.453 -25.749,19.731 -45.036,14.798 -67.48,-11.493 -3.4,-5.776 -5.817,-12.077 -7.153,-18.646 -3.206,-12.973 -8.928,-16.574 -12.923,-31.274 -10.458,-38.426 0.937,-224.095 1.973,-225.032 4.242,-3.897 -2.368,-1.973 -11.888,-14.40297 -7.745,-9.866 -4.144,-20.422 -19.731,-45.776 -0.313,-0.687 -0.777,-1.291 -1.357,-1.772 -0.584,-0.477 -1.266,-0.818 -1.998,-0.991 -3.009,-0.493 -0.542,3.404 0.839,6.462 2.072,4.489 -2.17,1.628 -2.96,1.579 -2.022,-0.247 -3.403,2.071 3.503,6.116 0.838,0.493 3.107,0.543 3.699,1.332 0.58,1.102 0.995,2.281 1.233,3.502 0,0.691 0,0.888 -0.641,0.938 -5.426,0.641 -7.794,1.775 -12.282,-2.023 -2.565,-2.17 -7.153,-7.103 -7.054,-10.457 0.246,-9.866 -1.431,-14.799 7.054,-19.731 3.305,-1.825 3.896,-4.933 4.094,-8.583 0.345,-6.709 7.103,-3.059 9.865,-11.79 3.946,-12.43 22,-1.479 19.386,-8.435 -7.991,-20.964 -33.049,-34.529 -29.597,-40.547 3.256,-5.278 15.144,4.538 18.202,8.09 9.57,10.803 27.13,25.502 28.709,35.762 0.986,6.166 5.278,8.287 9.569,22.691 7.745,25.848 16.525,36.848 17.561,65.408 1.628,44.39497 47.453,214.77197 47.502,214.91997 1.283,2.664 4.341,1.529 4.193,-1.233 -1.776,-33.099 -20.224,-69.601 -15.686,-69.848 7.481,-0.518 14.967,0.946 21.704,4.242 4.538,3.404 32.556,28.315 35.023,30.633 10.753,9.569 22.148,12.825 29.498,24.072 z"
         fill="#ffc6a6"
         id="path225" /><path
         d="m 1511.6943,779.56593 c 20.816,-17.61 45.43,-3.305 24.664,29.942 -4.144,6.561 -8.287,12.233 -26.391,19.731 -23.529,9.866 -26.341,-50.363 -26.784,59.193 0,31.077 3.354,40.4 47.009,61.561 1.726,0.839 -13.417,12.135 -13.516,12.184 -26.292,18.843 -10.852,9.865 -39.955,21.556 -4.933,1.875 -25.305,10.31 -25.651,7.202 -3.946,-33 -11.838,-40.547 -17.264,-59.884 -4.933,-17.067 -10.458,-21.408 -10.951,-27.13 -0.691,-8.386 -19.731,-24.664 -22.049,-27.623 -0.839,-0.987 -0.74,-1.381 0.493,-1.825 55.592,-18.104 47.157,-31.866 41.534,-28.561 -11.444,6.659 -62.696,25.009 -86.57,-2.368 -26.193,-30.09 -26.785,-83.511 -15.933,-80.157 4.485,0.992 9.159,0.735 13.508,-0.744 4.344,-1.479 8.204,-4.122 11.156,-7.642 2.861,-2.861 0,8.041 13.812,10.556 2.861,0.543 3.946,-2.959 2.219,-3.798 -4.193,-2.121 -8.139,-3.107 -10.408,-10.161 -1.776,-5.476 15.292,-1.085 14.798,-13.911 0,-3.403 -3.305,-3.502 -4.044,-0.444 -1.332,5.278 0,4.489 -7.893,5.969 -0.69,0 -0.888,0 -0.641,-0.839 4.341,-13.663 2.96,-17.56 7.399,-20.865 1.924,-1.124 4.115,-1.711 6.339,-1.699 2.228,0.012 4.41,0.622 6.322,1.766 1.911,1.145 3.477,2.782 4.542,4.739 1.061,1.958 1.578,4.166 1.492,6.391 0.641,16.13 16.278,39.758 34.529,39.068 25.848,-1.036 33.296,-27.673 37.983,-30.583 3.107,-1.973 6.363,-0.74 19.484,7.3 3.848,2.318 -7.35,25.7 10.901,33.691 1.924,0.838 -2.269,3.403 2.417,4.933 0.543,0.591 3.207,-3.996 7.449,-7.548 z m 23.628,15.489 c 0.682,-1.378 0.966,-2.919 0.818,-4.451 -0.148,-1.531 -0.72,-2.989 -1.653,-4.211 -0.937,-1.222 -2.195,-2.158 -3.634,-2.702 -1.438,-0.544 -3,-0.674 -4.509,-0.376 -7.991,1.727 -16.722,11.888 -12.48,20.126 1.431,2.812 0,8.632 -2.959,9.323 -5.87,1.282 -6.265,-1.48 -7.695,1.184 -1.431,2.663 1.726,4.932 4.932,4.932 10.162,0 13.565,-11.641 10.31,-17.905 -0.415,-0.684 -0.662,-1.458 -0.716,-2.258 -0.049,-0.799 0.095,-1.599 0.42,-2.33 2.072,-4.933 12.381,-14.256 13.368,-1.036 0.246,1.381 2.762,1.875 3.798,-0.296 z"
         fill="#ffc6a6"
         id="path227" /><path
         d="m 1299.9313,1168.2669 c 14.403,9.866 12.183,0.444 5.228,47.207 -3.37,20.175 -8.098,40.099 -14.157,59.637 -1.381,4.045 0.69,-11.592 0,-28.166 -0.691,-22.494 -23.875,-60.081 -26.341,-59.193 -4.933,1.627 4.933,7.399 16.969,40.744 8.237,23.381 3.897,55.543 -1.875,64.126 -7.498,11.049 -14.009,15.735 -32.901,12.874 -8.475,-1.278 -16.381,-5.039 -22.72,-10.806 -6.339,-5.768 -10.826,-13.286 -12.895,-21.602 -2.663,-10.95 -7.004,-23.578 -4.932,-36.847 9.865,-71.032 3.946,-38.131 16.278,-21.162 h 2.219 c -0.69,-5.377 -1.183,-4.933 -7.793,-26.637 -2.072,-6.906 -2.121,-7.892 -4.292,-9.273 -9.323,-5.821 -7.596,-6.758 -9.421,-16.624 -1.135,-5.968 -8.485,-4.39 -7.548,-12.776 0.257,-2.363 -0.093,-4.755 -1.017,-6.946 -0.923,-2.196 -2.389,-4.115 -4.261,-5.583 -3.403,-3.206 -2.614,-12.677 3.305,-18.843 10.556,-10.95 11.74,-15.834 22,-23.43 1.628,-1.234 2.023,-0.79 17.216,-4.341 3.305,-0.789 1.282,-1.579 8.237,-2.812 18.597,-3.354 23.283,-9.865 23.086,-5.722 -0.426,3.338 -1.773,6.487 -3.891,9.101 -2.117,2.614 -4.92,4.588 -8.096,5.697 -3.999,2.327 -8.231,4.23 -12.628,5.673 -29.596,6.709 -28.018,26.538 -23.184,20.866 6.314,-7.399 5.377,-8.929 7.745,-4.588 1.776,3.256 0.888,1.776 -4.933,7.005 -4.933,4.439 -21.408,17.758 -13.417,16.574 1.134,0 1.776,-0.74 12.233,-9.52 7.449,-6.314 10.458,-11.987 34.529,-12.234 13.861,0 24.664,-6.363 34.086,-8.188 3.601,-0.74 2.663,10.803 -22.592,17.61 -5.511,2.207 -11.229,3.86 -17.068,4.933 -4.617,0.23 -9.071,1.788 -12.825,4.488 -3.453,3.256 -6.018,4.933 -4.242,6.758 0.641,0.691 1.233,1.233 2.171,0.247 5.968,-6.215 12.134,-5.919 24.663,-8.435 3.749,-0.74 2.96,-2.615 8.929,-3.206 6.105,-1.049 12.148,-2.434 18.103,-4.144 4.932,0 1.134,10.457 -24.664,20.422 -12.48,4.932 -18.35,6.264 -22.74,12.825 -1.184,1.776 -2.17,4.439 0,5.426 3.601,1.628 1.431,-5.919 14.305,-10.606 2.22,-0.789 2.762,-0.986 3.552,8.879 1.677,21.409 -6.216,30.781 -6.857,39.462 0,1.184 1.381,2.713 2.861,0.888 2.24,-4.83 4.232,-9.767 5.969,-14.798 11.049,-33.049 -14.799,-43.803 19.731,-33.197 15.636,4.834 17.807,4.094 23.875,8.237 z"
         fill="#ffc6a6"
         id="path229" /><path
         d="m 1220.0713,1068.0829 c 6.708,-1.529 1.134,12.973 -11.148,19.731 -9.866,5.574 -10.852,6.117 -12.233,7.794 -1.382,1.677 0,3.798 1.282,3.354 8.09,-2.368 21.507,-16.821 -6.018,14.798 -6.511,7.498 -5.525,8.041 -6.412,1.431 0.058,-2.512 0.289,-5.015 0.69,-7.498 1.233,-5.87 -5.229,-19.731 1.677,-24.121 8.937,-5.434 18.429,-9.899 28.314,-13.319 1.189,-0.879 2.481,-1.607 3.848,-2.17 z"
         fill="#ffc6a6"
         id="path231" /><path
         d="m 1342.5993,702.56693 c 0,-0.691 3.946,-19.731 8.78,-26.687 4.834,-6.955 21.408,-24.663 21.408,-24.663 0,0 12.332,6.412 13.467,-4.933 0,0 4.637,4.39 9.865,-3.749 5.229,-8.139 18.893,-7.301 23.826,-5.13 4.932,2.17 18.497,4.637 25.995,17.215 7.498,12.579 33.198,56.431 37.785,62.745 4.588,6.314 19.139,24.664 8.336,27.771 l -19.731,-11.246 c 0,0 -6.856,-20.077 -24.071,-22.938 -17.216,-2.861 -37.687,-4.587 -46.072,9.866 0,0 -16.525,-9.866 -28.018,0.641 0,0 -2.615,-15.439 -16.969,-17.857 -14.354,-2.417 -14.601,-1.035 -14.601,-1.035 z"
         fill="#ffc6a6"
         id="path233" /><path
         d="m 1012.2543,797.17693 -2.3184,-13.96 11.0987,9.372 14.3049,-6.708 -4.8341,15.933 10.1615,14.798 -16.9687,-2.911 -6.7085,14.996 -4.2915,-18.004 -14.74888,-7.005 z"
         fill="#ffeab6"
         id="path235" /><path
         d="m 1722.7173,792.98293 c -23.036,18.35 -25.502,53.521 -37.094,45.086 -13.269,-9.866 -21.754,-20.176 -22.148,-34.974 0,-4.094 -2.22,-8.089 -6.166,-6.61 -3.207,1.399 -6.503,2.585 -9.866,3.552 -11.296,2.96 -10.852,-7.301 -16.081,-2.516 -2.104,1.456 -4.073,3.108 -5.869,4.933 -1.628,1.48 -0.839,0.641 -4.588,-2.17 -3.749,-2.812 -9.175,1.035 -8.435,3.206 0.362,0.528 0.888,0.917 1.496,1.106 0.609,0.188 1.266,0.163 1.858,-0.07 2.911,-1.283 3.355,1.48 6.314,3.847 4.933,3.996 8.83,-9.027 13.072,-6.018 7.054,4.933 10.26,3.256 21.014,-0.394 6.659,-2.22 -6.117,12.529 20.569,35.17 14.798,12.678 17.314,8.682 28.906,-14.502 4.242,-8.484 12.579,-22.296 20.126,-26.933 3.107,-1.924 6.758,-2.91 14.354,2.466 17.807,12.628 9.866,15.835 7.547,21.31 -0.394,0.986 1.727,2.762 2.664,1.48 5.87,-8.041 4.242,-5.525 5.475,-9.422 -2.121,-12.233 -22.099,-27.327 -33.148,-18.547 z"
         fill="#000001"
         id="path237" /><path
         d="m 1715.3183,730.09193 c -0.395,-2.467 -1.184,-4.933 -1.677,-7.35 -0.058,-0.585 -0.292,-1.138 -0.671,-1.587 -0.378,-0.449 -0.883,-0.773 -1.451,-0.929 -1.923,-0.592 -2.17,0.493 -8.78,8.336 -5.87,6.955 -2.368,5.772 -16.771,2.22 -0.794,0.141 -1.546,0.458 -2.204,0.927 -0.657,0.47 -1.204,1.08 -1.594,1.786 -0.987,1.43 -0.888,1.973 3.502,9.076 3.749,6.067 4.933,4.588 3.157,7.202 -9.323,13.96 -13.516,18.547 3.65,12.283 9.865,-3.552 9.471,-4.095 10.901,-2.664 6.66,6.659 15.835,17.906 16.377,8.484 0.234,-3.696 -0.337,-7.398 -1.677,-10.852 -0.691,-3.551 12.874,-5.377 13.664,-10.457 0.065,-0.22 0.086,-0.452 0.061,-0.681 -0.028,-0.228 -0.098,-0.449 -0.218,-0.648 -0.115,-0.199 -0.267,-0.372 -0.456,-0.508 -0.185,-0.136 -0.394,-0.233 -0.62,-0.284 -18.794,-6.66 -12.974,-0.148 -15.193,-14.354 z m 0.246,22.049 c -4.932,3.65 -0.296,6.708 -0.69,11.838 -3.848,-1.627 -8.189,-9.865 -13.911,-9.865 -10.309,3.453 -10.95,4.933 -12.775,4.933 0.591,-3.7 9.273,-11.197 4.34,-15.193 -1.923,-1.48 -6.708,-8.534 -4.291,-7.991 9.569,2.219 9.52,2.663 11.345,1.381 9.619,-6.61 9.866,-16.772 11.641,-2.861 1.53,12.529 -1.578,7.399 12.283,12.43 2.269,0.938 -4.834,3.059 -7.942,5.328 z"
         fill="#000001"
         id="path239" /><path
         d="m 1653.7573,649.88393 c 0.395,19.731 12.776,29.596 -7.942,26.933 -31.767,-4.144 -38.13,-11.79 -35.121,11.296 0.395,3.107 0.543,2.121 -14.798,8.336 -7.695,3.157 -4.193,7.054 0,5.426 14.009,-5.722 20.175,-6.56 19.731,-12.677 -0.987,-10.803 -2.368,-12.727 1.726,-12.036 27.673,4.44 32.359,5.475 37.341,4.933 19.435,-2.072 -5.327,-33 7.942,-39.462 9.323,-4.637 12.431,2.762 57.171,20.569 2.466,0.987 4.932,1.973 5.722,-0.345 0.789,-2.318 -1.48,-2.466 -2.713,-2.96 -44.395,-18.201 -39.857,-19.089 -49.328,-22.197 -2.084,-0.975 -4.378,-1.416 -6.676,-1.284 -2.297,0.133 -4.525,0.836 -6.482,2.045 -1.957,1.208 -3.585,2.886 -4.731,4.88 -1.147,1.994 -1.78,4.243 -1.842,6.543 z"
         fill="#000001"
         id="path241" /><path
         d="m 1672.8963,589.45893 c -3.7,6.067 -12.283,19.287 -4.341,17.314 2.96,-0.691 8.632,-1.776 9.866,-2.27 7.547,-2.565 7.793,-3.6 8.829,-2.515 9.866,9.865 16.92,20.668 16.426,2.614 -0.296,-8.484 -2.17,-9.865 0.247,-10.803 3.206,-1.381 9.57,-4.932 11.345,-5.376 6.068,-1.825 6.364,-5.772 3.749,-6.956 -2.614,-1.183 -9.865,-2.565 -14.354,-4.488 -7.153,-3.207 -4.094,1.184 -8.682,-16.969 -0.107,-0.54 -0.382,-1.032 -0.789,-1.406 -0.403,-0.374 -0.917,-0.611 -1.463,-0.676 -0.547,-0.066 -1.102,0.043 -1.583,0.31 -0.481,0.268 -0.863,0.681 -1.098,1.18 -0.591,0.789 -2.663,3.749 -8.977,13.023 -1.48,2.219 -15.637,-5.229 -17.955,-2.467 -5.821,6.758 10.704,16.328 8.78,19.485 z m 5.919,-12.53 c 4.933,1.431 4.045,0.74 13.023,-11.345 2.861,-3.897 1.036,13.713 7.695,14.305 2.269,0 5.524,2.762 10.803,3.946 0.423,0.154 0.822,0.37 1.183,0.641 -0.246,0.346 -0.444,0.79 -0.789,0.938 -12.43,6.412 -13.269,5.623 -12.529,9.865 1.874,11.691 1.43,9.866 1.135,11.888 -13.171,-11.937 -7.942,-10.408 -9.866,-10.753 -3.65,-0.543 -10.457,3.551 -17.018,4.932 -2.269,0 -1.381,-0.493 4.291,-9.865 6.117,-10.112 -24.367,-22.099 2.072,-14.552 z"
         fill="#000001"
         id="path243" /><path
         d="m 1556.2863,600.75493 c -0.222,1.926 -0.037,3.877 0.542,5.727 0.576,1.851 1.538,3.56 2.812,5.018 1.278,1.459 2.844,2.634 4.604,3.451 1.759,0.816 3.667,1.257 5.607,1.292 7.202,0.642 10.112,-5.524 12.825,-4.932 6.067,1.184 10.901,-5.525 11.099,-10.31 0,-2.516 1.874,-4.193 2.861,-6.61 0.986,-2.417 -0.296,-3.946 0.986,-4.341 1.887,-1.298 3.408,-3.059 4.419,-5.115 1.011,-2.056 1.476,-4.337 1.352,-6.624 0,-0.642 1.678,-2.911 0,-4.933 -0.345,-0.444 1.332,-3.108 1.727,-3.502 0.395,-0.395 47.354,3.354 55.592,-38.032 12.036,-60.4755 -85.09,-84.94195 -103.193,-26.8342 -9.866,31.2737 15.785,47.8482 14.255,51.0542 -3.995,8.238 -6.56,4.933 -8.04,8.533 -3.946,9.126 0,7.992 -2.121,9.126 -7.103,3.65 -3.157,8.139 -5.623,9.866 -1.924,1.414 -3.231,3.516 -3.642,5.868 -0.415,2.352 0.094,4.774 1.422,6.759 1.924,2.269 2.91,2.763 2.516,4.539 z m 13.91,10.408 c -5.722,-1.382 -6.413,-1.48 -9.866,-8.485 -0.443,-0.888 0.642,-0.74 1.579,-0.345 13.614,5.623 17.413,6.511 8.287,8.83 z m -2.269,-68.0723 c -23.727,-37.6369 9.865,-67.8747 35.861,-66.4442 61.117,-0.3453 74.287,80.0585 10.753,87.3095 -8.287,0.987 -9.865,-1.381 -12.43,1.924 -4.637,6.561 -1.628,9.52 -5.426,8.534 -7.757,-1.981 -15.148,-5.178 -21.902,-9.471 -6.264,-3.798 4.933,-4.933 1.678,-11.987 -3.256,-7.0536 -3.207,-1.677 -8.534,-9.8653 z m 0.247,22.4933 c 26.143,19.731 36.502,9.57 28.61,18.744 -1.48,1.727 -7.202,-1.183 -9.373,-1.973 -10.358,-3.896 -27.968,-9.52 -19.04,-16.771 z m -6.018,12.727 c 0.789,-0.592 0.394,-2.27 1.529,-2.171 1.973,0 -0.641,2.072 12.43,7.301 13.072,5.228 14.207,5.82 16.772,6.067 2.565,0.247 -0.296,5.673 -5.229,5.574 -7.991,-2.762 -31.866,-11.543 -25.305,-16.771 z m -4.933,9.865 c 2.17,-3.354 0.395,0.493 11.641,5.327 12.184,5.278 16.574,7.252 19.731,6.857 0.839,0 0.789,0.592 0.444,1.036 -2.022,2.713 -4.341,6.708 -8.139,4.291 -9.619,-6.708 -28.659,-9.471 -23.381,-17.708 z"
         fill="#000001"
         id="path245" /><path
         d="m 1653.8063,896.71893 c -3.847,-2.466 -2.368,-2.762 -1.529,-6.412 3.404,-14.799 3.256,-13.763 3.058,-14.799 -0.024,-0.415 -0.164,-0.818 -0.402,-1.163 -0.239,-0.345 -0.568,-0.612 -0.95,-0.781 -0.382,-0.168 -0.802,-0.23 -1.217,-0.172 -0.415,0.057 -0.805,0.226 -1.13,0.489 -4.933,3.897 -10.556,6.215 -15.588,9.865 -2.318,1.579 -10.112,-6.314 -11.888,-5.623 -2.614,1.085 -4.538,2.368 -3.699,5.574 3.502,12.677 2.417,11.345 0.592,12.529 -5.377,3.453 -9.866,4.933 -9.52,9.323 0,3.552 10.753,3.305 14.798,3.354 4.045,0.05 3.206,1.776 4.587,4.045 6.166,10.162 9.866,16.032 12.924,4.489 2.664,-9.57 -0.641,-8.534 15.735,-9.076 7.005,-0.543 1.727,-6.857 -5.771,-11.642 z m -3.502,7.153 c -5.771,0.74 -8.188,0.888 -8.83,4.39 -0.526,2.853 -1.336,5.644 -2.417,8.336 -0.255,-0.189 -0.485,-0.403 -0.69,-0.641 -9.866,-14.502 -2.22,-10.753 -20.323,-12.233 -3.601,0 6.314,-3.354 9.224,-9.866 1.085,-2.417 -3.996,-11.444 -1.135,-9.865 8.682,4.587 5.87,2.91 6.956,3.551 3.255,2.023 12.923,-5.919 16.623,-7.004 1.332,8.139 -8.04,13.072 0.789,19.287 6.216,4.291 5.377,3.354 -0.197,4.045 z"
         fill="#000001"
         id="path247" /><path
         d="m 1598.8063,963.45893 c -14.009,-7.399 -25.305,-1.874 -42.569,-11.641 -4.958,-3.473 -10.988,-5.081 -17.018,-4.538 -4.193,1.085 -40.597,-14.798 -48.44,-32.063 -1.661,-4.501 -2.528,-9.261 -2.565,-14.058 -0.345,-3.749 18.103,12.332 35.96,3.551 0.464,-0.16 0.871,-0.452 1.171,-0.838 0.304,-0.387 0.489,-0.851 0.535,-1.336 0.045,-0.489 -0.046,-0.983 -0.272,-1.418 -0.222,-0.436 -0.567,-0.798 -0.99,-1.044 -6.466,-2.713 -11.917,-7.391 -15.588,-13.368 -0.592,-0.987 -1.282,-2.96 0.987,-1.431 20.076,13.664 46.417,-0.937 38.377,-4.932 -7.149,-1.813 -13.496,-5.94 -18.054,-11.74 -0.987,-1.234 0,-1.036 0.592,-0.691 14.798,6.61 35.614,5.673 47.354,-5.623 6.117,-5.92 -13.516,-8.435 -17.807,-31.521 -7.614,-107.336 -9.614,-97.336 -7.614,-107.336 0,0 5.937,-28.857 -3.732,-43.063 -26.291,-38.574 -64.125,-57.417 -111.332,-70.835 -11.172,-2.572 -22.822,-2.249 -33.838,0.938 -1.974,0.789 -1.53,4.045 0.838,3.699 17.039,-3.761 34.85,-1.568 50.462,6.216 19.238,9.076 57.269,17.659 86.126,58.255 63.337,88.79 -14.798,133.185 24.318,173.732 8.238,8.534 9.422,7.152 5.525,9.471 -6.988,3.909 -14.93,5.775 -22.925,5.393 -7.999,-0.382 -15.727,-3.005 -22.308,-7.564 -3.058,-1.973 -6.215,0 -4.588,3.7 6.857,16.574 23.53,18.744 19.238,20.224 -22.691,7.646 -31.865,-6.264 -35.072,-8.04 -6.807,-3.65 5.671,5.968 -19.712,10.507 -10.034,1.794 1.56,15.34 1.856,4.636 2.713,-90.17 -5.969,-50.61 20.224,-54.26 21.753,-3.108 46.861,-33.937 40.843,-55.691 -4.045,-14.453 -17.412,-12.776 -20.767,-15.193 -32.507,-23.332 -49.771,-30.533 -59.193,-45.332 -11.148,-17.462 -52.731,-23.479 -67.381,-2.91 -0.543,0.789 -0.987,0.987 -1.727,0 -1.352,-1.625 -3.029,-2.955 -4.916,-3.909 -1.891,-0.953 -3.954,-1.51 -6.067,-1.634 -2.113,-0.125 -4.226,0.184 -6.215,0.908 -1.986,0.725 -3.807,1.849 -5.344,3.303 -0.642,0.691 -0.937,0.691 -1.184,-0.296 -2.565,-10.556 -16.919,-15.538 -28.709,-16.179 -1.825,0 -2.17,0.641 2.565,-11.641 0.888,-2.27 6.018,-2.763 13.615,2.663 6.856,4.242 2.071,-11.641 -8.83,-11.394 -4.933,0 14.404,-21.162 17.413,-24.664 1.578,-1.776 2.022,1.282 5.919,1.628 1.628,0 2.664,-2.565 0.691,-4.095 -25.305,-19.731 1.529,-60.278 25.403,-47.206 4.933,2.812 7.35,-2.417 2.565,-4.933 -16.87,-8.237 -35.96,3.009 -41.287,21.458 -0.69,2.269 -0.838,-0.346 -12.332,2.318 -5.146,1.216 -11.307,4.205 -15.142,7.844 -3.839,3.639 -5.222,7.798 -6.71,12.874 -0.666,2.328 -1.965,4.428 -3.749,6.067 -11.345,12.233 -5.919,27.821 7.005,31.718 0.937,0.296 4.637,0.739 4.933,-0.987 0.789,-2.861 -1.53,-2.91 -3.355,-3.453 -17.264,-5.179 -7.152,-28.413 -5.228,-20.175 1.923,8.238 13.071,18.597 15.488,14.354 2.417,-4.242 -17.56,-9.372 -10.161,-27.87 5.821,-14.798 27.87,-19.731 27.821,-13.959 -0.296,18.251 7.793,19.731 5.82,21.802 -9.865,10.31 -14.798,13.96 -20.865,26.785 -0.436,1.107 -1.262,2.018 -2.319,2.565 -7.448,3.453 -10.21,14.799 -7.349,13.121 6.116,-4.094 4.143,-3.847 2.614,3.799 -0.74,3.601 -5.673,0.296 -18.103,7.004 -22.148,12.233 -11.395,41.287 7.448,54.162 7.153,4.933 -14.108,11.789 7.005,62.448 0.098,0.164 0.156,0.349 0.168,0.539 0.012,0.191 0.403,0.166 0.325,0.341 -0.078,0.174 0.36,-0.254 0.212,-0.135 -0.148,0.119 -0.023,-0.536 -0.212,-0.5 7.712,22 6.212,20.5 2.38,-0.245 -2.96,-0.296 -3.593,-1.829 -2.705,0.539 7.537,19.939 5.425,14.618 7.537,19.939 20.983,22.483 18.037,18.411 20.983,22.462 0.489,-0.592 -0.765,0.074 0,0 -0.346,3.996 4.517,4.805 11.517,13.805 14.5,7 -12.455,-14.693 -11.517,-13.805 -1.46,4.974 6.517,8.305 2.141,5.599 11.148,12.446 15.243,15.785 11.148,28.166 -0.291,-0.074 0.292,-0.074 0,0 -0.55,3.584 -1.344,7.128 -2.367,10.605 -2.368,7.843 -8.337,4.933 -10.606,13.072 -2.022,7.547 -40.3,18.103 -45.282,21.26 -1.628,0.987 -0.444,1.727 -15.341,-28.708 -21.112,-42.965 -19.73,-42.915 -25.156,-41.09 -12.628,4.045 -8.238,6.166 -16.131,-9.866 -4.044,-8.238 -96.336,15.834 -124.65,49.525 -5.969,7.399 -2.368,9.224 -0.346,7.399 1.135,-0.986 9.027,-16.574 53.422,-35.762 21.06,-9.126 43.291,-15.271 66.05,-18.252 2.565,-0.295 1.529,-1.035 6.61,10.211 1.282,2.861 -122.037,40.893 -125.095,44.79 -3.058,3.897 -9.865,2.663 -7.794,1.085 0.459,-0.313 0.78,-0.785 0.899,-1.328 0.119,-0.542 0.027,-1.106 -0.257,-1.582 -9.866,-22.839 -21.113,-24.664 -19.731,-29.597 0,-0.937 -4.341,-11.148 -3.552,-12.628 0.789,-1.48 24.072,19.238 23.283,32.902 0,3.453 5.524,4.932 4.636,-1.382 -2.515,-18.497 -27.13,-43.654 -33.641,-35.663 -1.135,1.332 3.65,11.049 3.749,13.959 -3.157,-0.937 -20.4711,-14.798 -25.9464,-7.941 -1.2332,1.479 -0.6413,1.677 7.0538,15.883 1.9238,3.601 -3.6009,-0.444 -9.0763,-3.699 -16.426,-9.866 -9.8655,-0.346 -1.1345,18.152 97.2244,200.22097 104.9694,212.10797 103.9824,217.63297 -0.501,2.952 -0.233,5.981 0.778,8.797 1.011,2.816 2.731,5.327 4.993,7.284 0.765,0.789 1.317,1.759 1.601,2.824 0.285,1.06 0.294,2.179 0.027,3.243 -0.542,12.184 8.189,10.211 8.09,17.018 0.052,4.625 1.809,9.068 4.933,12.48 7.497,5.475 4.291,-5.229 -2.368,55.937 -1.875,17.117 3.453,31.077 6.363,41.682 6.166,22.099 29.597,34.234 45.875,34.53 1.677,0 2.367,-0.592 0,6.757 -7.547,23.628 2.022,28.512 -9.323,43.014 -2.007,2.914 -3.168,6.33 -3.354,9.866 0.063,0.472 0.286,0.908 0.633,1.233 0.346,0.324 0.794,0.522 1.269,0.559 0.474,0.033 0.946,-0.095 1.337,-0.37 0.39,-0.272 0.674,-0.67 0.805,-1.127 2.368,-8.829 9.866,-12.677 10.162,-25.009 0,-2.17 0.296,-15.784 0.789,-17.856 4.39,-18.991 3.453,-17.018 5.969,-17.413 16.031,-2.565 19.435,-11.542 28.462,-23.776 6.313,-8.583 19.73,-65.803 23.923,-106.103 0,-1.579 0,-3.206 1.43,-4.292 1.431,-1.085 8.534,-45.134 8.386,-49.327 0,-1.628 -2.861,-2.269 -3.453,-0.789 -1.628,3.896 -4.094,28.067 -7.202,44.098 -0.345,1.973 -1.134,0.74 -8.533,-4.488 -9.866,-7.005 -11.296,-5.328 -23.578,-8.83 -19.731,-5.771 -14.798,-2.861 -3.798,-9.866 14.798,-9.569 13.811,-18.497 12.134,-20.618 -1.677,-2.122 -7.004,-0.888 0,-2.911 65.26,-18.892 90.269,-25.995 99.197,-29.596 6.166,-2.368 4.933,-3.059 3.453,-4.637 0,0 -9.372,-19.041 -69.059,-140.53397 -0.888,-1.875 -1.43,-1.184 10.408,-4.933 0.79,0 1.036,0 1.184,0.839 2.944,12.899 9.841,24.556 19.731,33.345 26.489,22.24697 36.207,14.502 38.229,17.906 16.821,28.65897 8.238,-38.525 4.933,168.40397 0,78.678 6.955,73.991 16.327,97.027 0.74,1.727 4.933,19.731 7.843,22.938 28.857,34.184 51.942,33.592 77.297,12.923 21.26,-17.313 56.924,-73.3 59.686,-71.179 2.762,2.121 7.3,2.318 11.641,5.278 5.87,3.995 15.045,7.892 21.803,5.919 5.574,-1.628 4.094,2.22 33.049,-82.87 1.53,-4.538 -1.331,36.996 -11,74.83 -13.318,51.991 -34.529,81.686 -29.596,101.516 1.973,7.695 -1.431,10.457 0,23.085 4.933,36.503 2.516,34.184 6.462,34.529 3.946,0.346 -0.444,-28.363 -0.789,-30.04 -3.009,-15.341 0.887,-19.731 -1.135,-28.215 -5.229,-21.655 23.529,-56.48 36.305,-132.543 5.623,-33.297 1.332,-46.27 12.727,-78.481 14.206,-39.856 23.381,-67.924 16.722,-109.951 -4.933,-30.73097 -14.453,-23.77597 -56.678,-46.07197 z m -462,-34.529 c 15.39,0 -8.534,-34.036 75.816,135.30597 1.48,3.009 -3.946,4.686 -7.103,5.278 -1.875,-1.234 2.269,5.623 -42.915,-85.38597 -28.758,-57.566 -28.758,-55.247 -25.798,-55.247 z m -48.736,-45.825 c 6.5605,-0.789 34.529,18.3 41.287,37.341 -11.492,-5.718 -22.525,-12.311 -33,-19.731 -0.937,-3.996 -7.4485,-14.749 -8.287,-17.659 z m 93.377,225.13097 c -1.628,-2.368 -103.5878,-211.22097 -104.2784,-212.94697 0.7892,-0.296 -1.8745,-1.628 41.3364,24.17 13.861,8.287 5.821,-2.219 29.251,45.332 54.951,111.47997 53.915,106.34997 51.548,107.18897 -29.548,10.112 -14.848,29.498 -17.857,36.206 z m 4.094,7.103 c 0.059,-2.512 0.29,-5.019 0.691,-7.498 1.233,-5.87 -5.229,-19.731 1.677,-24.121 8.937,-5.434 18.429,-9.898 28.314,-13.318 1.183,-0.913 2.476,-1.678 3.847,-2.27 6.709,-1.479 1.135,12.974 -11.148,19.731 -9.865,5.574 -10.852,6.117 -12.233,7.794 -1.381,1.677 0,3.798 1.283,3.354 8.089,-2.367 21.506,-16.82 -6.018,14.799 -6.512,7.547 -5.525,8.04 -6.413,1.48 z m 37.785,-29.597 c 0.839,2.072 0.543,1.727 -7.152,3.256 0,0 0,0 0,-0.395 4.291,-2.614 4.932,-5.574 5.771,-5.376 0.838,0.197 0.69,0.986 1.381,2.663 z m 40.646,44.099 c -5.511,2.208 -11.228,3.86 -17.067,4.933 -4.618,0.23 -9.071,1.788 -12.826,4.489 -3.453,3.255 -6.018,4.932 -4.242,6.758 0.642,0.69 1.233,1.233 2.171,0.246 5.968,-6.215 12.134,-5.919 24.663,-8.435 3.749,-0.74 2.96,-2.614 8.929,-3.206 6.106,-1.048 12.149,-2.434 18.103,-4.144 4.933,0 1.134,10.458 -24.664,20.422 -12.529,4.933 -18.35,6.265 -22.74,12.825 -1.184,1.776 -2.17,4.44 0,5.426 3.601,1.628 1.431,-5.919 14.305,-10.605 2.22,-0.789 2.762,-0.987 3.552,8.879 1.677,21.408 -6.216,30.78 -6.857,39.462 0,1.184 1.381,2.713 2.861,0.888 1.48,-1.825 5.476,-13.516 5.969,-14.799 11.049,-33.049 -14.798,-43.802 19.731,-33.197 15.834,4.933 17.806,4.094 23.873,8.238 14.404,9.865 12.184,0.444 5.229,47.206 -3.37,20.175 -8.098,40.099 -14.156,59.637 -1.381,4.045 0.691,-11.592 0,-28.166 -0.691,-22.493 -23.874,-60.081 -26.341,-59.193 -4.933,1.628 4.933,7.399 16.969,40.745 8.238,23.381 3.897,55.542 -1.875,64.125 -7.497,11.05 -14.009,15.736 -32.901,12.875 -8.475,-1.279 -16.381,-5.036 -22.72,-10.807 -6.339,-5.767 -10.826,-13.285 -12.895,-21.601 -2.663,-10.951 -7.004,-23.579 -4.932,-36.848 9.865,-71.032 3.946,-38.13 16.278,-21.162 h 2.22 c -0.691,-5.376 -1.184,-4.932 -7.794,-26.636 -2.072,-6.906 -2.121,-7.893 -4.292,-9.274 -9.323,-5.821 -7.596,-6.758 -9.421,-16.623 -1.135,-5.969 -8.485,-4.39 -7.547,-12.776 0.256,-2.364 -0.094,-4.756 -1.017,-6.947 -0.924,-2.191 -2.39,-4.115 -4.261,-5.582 -3.404,-3.207 -2.615,-12.677 3.304,-18.843 10.557,-10.951 11.74,-15.835 22.001,-23.431 1.627,-1.233 2.022,-0.789 17.215,-4.341 3.305,-0.789 1.282,-1.578 8.238,-2.812 18.596,-3.354 23.282,-9.865 23.085,-5.721 -0.426,3.337 -1.773,6.49 -3.89,9.1 -2.117,2.615 -4.921,4.588 -8.097,5.698 -3.998,2.331 -8.231,4.23 -12.628,5.672 -29.596,6.709 -28.018,26.539 -23.184,20.866 6.314,-7.399 5.377,-8.928 7.745,-4.588 1.776,3.256 0.888,1.776 -4.933,7.005 -4.933,4.439 -21.408,17.758 -13.417,16.574 1.135,0 1.776,-0.74 12.233,-9.52 7.449,-6.314 10.458,-11.987 34.53,-12.233 13.861,0 24.663,-6.364 34.085,-8.189 3.601,-0.592 2.664,10.951 -22.592,17.758 z m -34.036,-10.951 c -0.641,-0.591 -0.345,0.346 -3.157,-5.376 -0.641,-1.381 0.444,-1.776 7.35,-3.897 0.888,-0.296 1.677,1.332 3.699,5.821 0.444,1.183 -0.394,1.479 -7.892,3.601 z m 155.973,-28.412 c -3.947,1.233 -92.489,27.475 -92.637,27.525 -1.035,0.296 -1.874,0.394 -1.381,-0.592 2.121,-4.538 0,-11.198 -5.574,-9.866 -18.448,3.897 -15.291,8.139 -41.928,8.189 -2.023,0 -1.135,0.591 -4.933,-6.906 -0.394,-0.79 0,-1.283 0.691,-1.48 5.297,-1.583 10.37,-3.835 15.094,-6.709 17.462,-8.533 17.265,-30.681 3.453,-23.628 -6.411,2.927 -13.203,4.937 -20.175,5.969 -3.1,0.97 -6.146,2.109 -9.126,3.404 -1.381,0.493 -3.551,-4.933 -4.193,-6.561 -0.641,-1.628 6.413,-17.708 -3.699,-17.462 -8.632,2.319 2.713,10.655 -72.758,-136.88397 -1.973,-3.847 -3.996,-1.776 28.215,-12.43 13.072,-4.292 90.713,-29.991 105.314,-35.269 1.382,-0.494 0,-2.565 17.067,32.309 88.839,183.59697 90.22,179.40397 86.57,180.53897 z m 109.655,-337.05497 c 0,-1.973 -0.987,-1.973 23.184,13.713 3.157,2.022 -4.193,1.184 -11.691,9.865 -1.43,1.678 -1.48,1.579 -3.551,0.592 -8.978,-3.995 -9.225,-13.762 -7.942,-24.022 z m -87.063,-36.059 c 9.865,-8.089 41.928,-7.892 54.26,6.068 10.753,12.233 -15.883,56.973 -42.175,38.574 -12.628,-8.83 -24.368,-34.776 -12.085,-44.642 z m -63.731,22.395 c 0,-2.466 -2.763,-33.148 1.233,-32.951 7.502,-0.266 14.917,1.69 21.309,5.624 10.606,6.955 -1.43,55 -27.278,45.48 -2.762,-1.086 4.538,-7.547 4.736,-18.153 z m -13.615,-30.534 c 2.565,-0.789 4.933,-1.381 7.794,-2.071 0.888,0 1.332,0 1.233,0.986 -2.565,22.247 4.637,28.561 -3.897,45.628 -0.986,2.072 -1.184,2.171 -2.861,0.839 -20.668,-16.87 -26.439,-37.835 -2.269,-45.382 z m 9.126,54.261 c 4.484,0.992 9.158,0.734 13.503,-0.744 4.349,-1.479 8.209,-4.122 11.16,-7.642 2.812,-2.861 0,8.04 13.812,10.556 2.861,0.543 3.946,-2.96 2.22,-3.798 -4.193,-2.121 -8.139,-3.108 -10.408,-10.162 -1.776,-5.475 15.291,-1.085 14.798,-13.91 0,-3.404 -3.305,-3.502 -4.045,-0.444 -1.332,5.278 0,4.489 -7.892,5.969 -0.691,0 -0.888,0 -0.641,-0.839 4.34,-13.664 2.959,-17.56 7.399,-20.865 1.923,-1.124 4.114,-1.711 6.338,-1.699 2.228,0.012 4.411,0.622 6.322,1.766 1.912,1.144 3.478,2.781 4.543,4.739 1.06,1.958 1.578,4.165 1.492,6.391 0.641,16.13 16.278,39.758 34.529,39.067 25.848,-1.036 33.296,-27.672 37.982,-30.583 3.108,-1.973 6.364,-0.74 19.485,7.301 3.847,2.318 -7.35,25.699 10.901,33.69 1.924,0.839 -2.269,3.404 2.417,4.933 0.74,0 3.404,-4.39 7.646,-7.942 20.816,-17.609 45.43,-3.304 24.664,29.942 -4.144,6.561 -8.287,12.234 -26.391,19.731 -23.529,9.866 -26.341,-50.363 -26.784,59.193 0,31.077 3.354,40.4 47.009,61.561 1.726,0.839 -13.417,12.135 -13.516,12.184 -26.292,18.843 -10.852,9.865 -39.955,21.556 -4.933,1.875 -25.305,10.31 -25.651,7.202 -3.946,-33 -11.838,-40.547 -17.264,-59.884 -4.933,-17.067 -10.458,-21.408 -10.951,-27.13 -0.691,-8.386 -19.731,-24.664 -22.049,-27.623 -0.839,-0.987 -0.74,-1.381 0.493,-1.825 55.592,-18.104 47.157,-31.866 41.534,-28.561 -11.444,6.659 -62.696,25.009 -86.57,-2.368 -26.489,-29.498 -27.081,-82.919 -16.229,-79.565 z m 47.995,226.018 c -22.345,-3.502 -44.148,-25.601 -48.637,-44.148 -0.838,-3.502 -1.43,-3.157 2.319,-4.439 11,-3.897 16.673,-8.09 15.291,-5.624 -2.762,4.933 -0.789,11.296 -1.134,13.565 -1.283,8.534 4.637,15.736 13.17,20.274 1.135,0.592 0.74,0.493 8.287,0.987 4.933,-1.184 5.574,-1.677 6.166,0 1.081,2.462 1.924,5.023 2.516,7.645 1.973,10.902 4.538,12.332 1.973,11.938 z m 144.382,261.97897 c -4.444,6.014 -9.253,11.748 -14.404,17.166 -6.955,8.04 -12.529,17.018 -23.529,25.453 -25.749,19.731 -45.036,14.798 -67.48,-11.493 -3.395,-5.78 -5.812,-12.077 -7.152,-18.646 -3.207,-12.973 -8.929,-16.574 -12.924,-31.274 -10.458,-38.426 0.937,-224.095 1.973,-225.032 4.242,-3.897 -2.368,-1.973 -11.888,-14.40397 -7.744,-9.865 -4.143,-20.421 -19.731,-45.776 -0.308,-0.686 -0.773,-1.29 -1.356,-1.771 -0.58,-0.477 -1.262,-0.818 -1.998,-0.991 -3.009,-0.493 -0.543,3.404 0.838,6.462 2.072,4.489 -2.17,1.628 -2.959,1.578 -2.023,-0.246 -3.404,2.072 3.502,6.117 0.838,0.493 3.108,0.543 3.699,1.332 0.58,1.101 0.995,2.281 1.234,3.502 0,0.691 0,0.888 -0.642,0.937 -5.426,0.642 -7.793,1.776 -12.282,-2.022 -2.565,-2.171 -7.153,-7.103 -7.054,-10.458 0.247,-9.865 -1.43,-14.798 7.054,-19.731 3.305,-1.825 3.897,-4.932 4.094,-8.583 0.345,-6.708 7.103,-3.058 9.866,-11.789 3.946,-12.43 22,-1.48 19.385,-8.435 -7.991,-20.964 -33.049,-34.529 -29.596,-40.547 3.255,-5.278 15.094,4.538 18.202,8.09 9.569,10.802 27.13,25.502 28.708,35.762 0.987,6.117 5.278,8.287 9.57,22.691 7.744,25.847 16.524,36.847 17.56,65.408 1.628,44.39497 47.453,214.77197 47.503,214.91997 1.282,2.664 4.341,1.579 4.193,-1.233 -1.776,-33.099 -20.225,-69.601 -15.687,-69.848 7.482,-0.518 14.971,0.946 21.705,4.242 4.538,3.404 32.556,28.314 35.022,30.633 10.211,9.372 21.606,12.628 28.955,23.874 5.229,7.745 6.61,-3.798 -34.43,54.063 z m -147.982,-350.91597 c 2.269,-11.641 2.022,-11.198 3.403,-9.866 2.475,2.713 4.489,5.813 5.969,9.175 1.036,1.924 -2.121,1.233 -2.171,1.036 -7.054,1.283 -7.892,1.875 -7.497,-0.148 z m 211.713,323.68697 c -0.205,0.411 -0.489,0.781 -0.838,1.085 -0.272,-0.271 -0.518,-0.571 -0.74,-0.888 -13.417,-19.731 -20.175,-24.663 -23.332,-30.287 -3.996,-7.054 -15.538,-14.354 -22.494,-18.596 -4.587,-2.812 -13.515,-11.987 -20.569,-17.561 -15.933,-12.578 -16.327,-20.52 -39.067,-23.628 -3.453,-0.493 -8.731,1.036 -9.57,0.346 -0.839,-0.691 0,-1.875 3.995,-9.57 3.351,-6.947 7.367,-13.557 11.987,-19.731 20.422,-28.807 16.278,-27.327 23.233,-39.215 12.234,-21.113 15.44,-18.547 35.023,-39.462 26.834,-28.70897 28.166,-29.34997 29.942,-33.88797 0.789,-2.121 -1.086,-3.108 -2.072,-2.072 -61.363,64.81597 -55.494,51.79397 -68.072,75.27397 -27.87,52.09 -11.592,15.834 -35.368,58.699 -2.516,4.489 -29.596,-119.274 -26.982,-127.56097 0.74,-2.367 3.502,1.431 24.664,-7.547 32.013,-13.663 15.143,-2.565 41.928,-22.296 13.565,-9.865 19.731,-20.865 33.494,-12.628 17.757,10.655 24.17,6.265 40.843,11.198 8.829,2.614 7.941,5.524 44.986,20.471 10.852,4.39 12.382,13.95897 13.664,23.38097 6.363,49.673 1.924,55.691 -54.951,214.673 z"
         fill="#000001"
         id="path249" /><path
         d="m 1583.8603,521.68243 c 0.888,0 1.529,0 1.233,1.5292 -1.874,8.0404 9.027,14.7982 6.857,18.6951 -2.952,5.6394 -5.028,11.6932 -6.166,17.9552 -0.247,1.48 1.085,0.691 1.627,1.135 2.072,1.775 3.059,-7.498 8.386,-17.5117 3.601,-6.6592 -6.856,-13.3184 -6.61,-19.0404 0.296,-7.3498 3.157,-3.157 9.866,-1.0359 3.749,1.1839 6.61,0 7.645,2.4664 0.671,1.3178 1.789,2.3517 3.158,2.9128 1.368,0.5615 2.889,0.6129 4.291,0.1455 4.538,-1.1839 3.354,2.3184 8.682,3.4529 5.327,1.1345 5.278,0.8879 5.278,2.861 0,0.6906 0,1.4305 -0.839,1.6278 -2.536,0.8653 -4.953,2.0418 -7.202,3.5023 -2.811,1.3318 -1.578,-0.9373 -6.264,2.121 -7.054,4.5875 -5.87,1.6772 -8.83,3.9956 -4.933,3.9955 -15.735,15.3897 -12.283,18.1027 3.453,2.713 3.848,-4.39 10.853,-10.802 7.004,-6.4128 5.919,-3.3052 8.287,-4.933 4.932,-3.0583 5.623,-3.5023 6.363,-3.5516 4.242,-0.3453 7.498,-3.8969 10.704,-4.1928 4.341,-0.3946 3.206,-4.1929 4.143,-3.8969 0.938,0.296 0.938,1.2332 1.283,2.0718 3.108,7.7444 12.776,-10.5068 5.327,-12.9239 -7.448,-2.417 -9.421,2.8117 -10.605,2.5158 -11.444,-2.5651 -4.341,-1.0852 -10.951,-4.4888 -3.058,-1.5785 -5.475,2.121 -7.942,-1.3812 -3.896,-5.6234 -1.085,0 -19.385,-7.3005 -1.283,-0.4933 -1.973,-2.2691 -2.96,-3.4529 -0.986,-1.1839 -2.516,-1.1839 -4.341,-1.6772 -5.179,-1.2332 -8.237,9.4709 0.395,11.0987 z m 53.668,8.8297 c 1.529,0.4439 0.395,4.0448 -0.986,3.3049 -5.229,-2.6637 -0.839,-3.8969 0.986,-3.3049 z m -54.26,-16.0808 c 0.592,0 1.628,1.7265 2.17,2.565 -2.713,2.2198 -3.995,-1.8744 -2.219,-2.565 z"
         fill="#000001"
         id="path251" /><path
         d="m 1618.2913,1053.0869 c -16.377,8.386 -38.229,23.628 -88.79,26.736 -1.924,0 -3.847,0.888 -3.601,2.861 0.247,1.973 42.175,4.193 93.722,-25.552 6.808,-3.995 3.157,-6.314 -1.331,-4.045 z"
         fill="#000001"
         id="path253" /><path
         d="m 1537.1963,1066.5539 c 26.39,-8.238 60.328,-34.529 58.157,-37.39 -4.291,-5.476 -15.143,16.524 -59.587,33.888 -1.579,0.592 -0.888,3.009 1.43,3.502 z"
         fill="#000001"
         id="path255" /><path
         d="m 1521.1153,981.01993 c -11.197,6.659 -11.444,9.866 -17.264,12.381 -3.848,1.677 -34.53,13.66397 -31.915,18.15297 1.43,2.318 1.184,0.444 34.529,-14.40397 4.744,-2.951 9.261,-6.248 13.516,-9.865 16.87,-12.184 19.237,-11.987 18.399,-14.799 -1.48,-4.488 -10.655,4.637 -17.265,8.534 z"
         fill="#000001"
         id="path257" /><path
         d="m 1508.2903,818.68293 c 10.162,0 13.565,-11.642 10.31,-17.906 -0.416,-0.683 -0.662,-1.458 -0.716,-2.258 -0.049,-0.799 0.095,-1.599 0.42,-2.33 2.071,-4.932 12.381,-14.256 13.367,-1.036 0,1.579 2.565,2.072 3.651,0 0.686,-1.378 0.97,-2.92 0.822,-4.45 -0.148,-1.531 -0.724,-2.991 -1.657,-4.212 -0.933,-1.222 -2.191,-2.158 -3.629,-2.702 -1.439,-0.544 -3.001,-0.674 -4.514,-0.376 -7.991,1.727 -16.722,11.888 -12.48,20.126 1.431,2.812 0,8.632 -2.959,9.323 -5.87,1.283 -6.265,-1.48 -7.696,1.184 -1.43,2.663 1.727,4.637 5.081,4.637 z"
         fill="#000001"
         id="path259" /><path
         d="m 1436.2803,521.32763 v -3e-4 c -2.409,-0.224 -3.946,0.9363 -5.023,2.4306 -0.543,0.7542 -0.962,1.587 -1.304,2.36 -0.16,0.3615 -0.302,0.7058 -0.432,1.023 l -0.027,0.0648 c -0.136,0.3297 -0.263,0.6369 -0.383,0.8866 0,4e-4 0,7e-4 0,0.001 l -0.451,-0.2165 z m 0,0 c 0.995,0.0857 1.864,0.2161 2.663,0.3359 0.041,0.006 0.082,0.0123 0.122,0.0184 0.825,0.1235 1.591,0.2351 2.319,0.2571 1.501,0.0454 2.834,-0.2915 4.365,-1.5599 1.32,-1.0886 1.676,-2.027 1.999,-2.9189 l 0.015,-0.0401 c 0.296,-0.8159 0.573,-1.5824 1.653,-2.5472 1.976,-1.7101 3.279,-2.9675 4.232,-3.8946 0.039,-0.0382 0.078,-0.0758 0.116,-0.1127 0.897,-0.8727 1.44,-1.4011 1.959,-1.7532 0.508,-0.3447 0.997,-0.5218 1.817,-0.6365 0.711,-0.0997 1.636,-0.1482 3.001,-0.2198 0.259,-0.0137 0.535,-0.0281 0.827,-0.0439 v -2e-4 m -25.091,13.1156 25.091,-13.1156 m 0,0 c 4.915,-0.2963 8.048,-1.4508 9.89,-3.029 1.867,-1.5993 2.361,-3.5942 2.067,-5.4 -0.29,-1.7771 -1.341,-3.3723 -2.566,-4.2512 -0.614,-0.4403 -1.307,-0.7259 -1.999,-0.7245 -0.712,0.002 -1.373,0.3087 -1.875,0.9545 -0.444,0.5506 -0.726,1.1087 -0.856,1.6189 -0.127,0.4988 -0.121,1.0078 0.097,1.4043 0.113,0.205 0.282,0.377 0.507,0.4811 0.224,0.1034 0.47,0.1249 0.713,0.0844 0.451,-0.0749 0.922,-0.3635 1.39,-0.8213 0.081,0.044 0.205,0.1439 0.347,0.3222 0.312,0.392 0.597,1.0222 0.645,1.7067 0.047,0.6694 -0.132,1.3787 -0.727,1.9899 -0.606,0.6216 -1.691,1.1899 -3.548,1.4578 -1.758,0.2486 -3.254,0.3669 -4.565,0.4586 -0.181,0.0127 -0.359,0.0249 -0.534,0.0369 -1.084,0.0742 -2.054,0.1406 -2.931,0.2658 -2.082,0.2974 -3.691,0.935 -5.346,2.7806 -1.074,1.1974 -2.18,2.1581 -3.253,3.0895 -0.466,0.4049 -0.926,0.8043 -1.375,1.2153 -1.458,1.3367 -2.744,2.7613 -3.452,4.7735 -0.225,0.5938 -0.509,0.935 -0.817,1.1372 -0.313,0.2052 -0.704,0.3021 -1.206,0.3103 -0.506,0.008 -1.088,-0.0738 -1.759,-0.1974 -0.24,-0.0441 -0.495,-0.0943 -0.76,-0.1465 -0.453,-0.0894 -0.936,-0.1845 -1.422,-0.2647 l -0.018,-0.003 m 23.353,-9.25 -23.353,9.25 m 0,0 -0.018,-0.002 m 0.018,0.002 -0.018,-0.002 m 0,0 c -2.613,-0.2388 -5.233,0.4339 -7.418,1.9053 m 7.418,-1.9053 -7.418,1.9053 m 0,0 c -2.182,1.469 -3.798,3.6444 -4.581,6.1613 z"
         fill="#000001"
         stroke="#000000"
         id="path261" /><path
         d="m 1443.0343,522.40263 c 0.235,0.1468 0.526,0.3073 0.839,0.4787 l 0.061,0.0337 c 0.301,0.1649 0.627,0.3438 0.969,0.5431 0.73,0.426 1.511,0.9349 2.2,1.5584 1.366,1.2355 2.349,2.8918 1.859,5.2616 l -10e-4,0.003 c -0.195,0.9798 -0.421,1.8292 -0.629,2.6096 -0.011,0.0399 -0.021,0.0797 -0.032,0.1192 -0.214,0.8059 -0.41,1.5548 -0.513,2.2756 -0.211,1.4868 -0.024,2.8487 1.066,4.5117 0.936,1.4321 1.829,1.8901 2.679,2.3106 l 0.039,0.0189 c 0.778,0.3844 1.509,0.7456 2.348,1.926 0.648,0.9422 1.194,1.7327 1.657,2.404 1.659,2.4012 2.264,3.277 2.694,4.1134 0.26,0.5045 0.455,0.9935 0.787,1.8275 0.015,0.038 0.031,0.077 0.047,0.117 0.358,0.9 0.866,2.165 1.744,4.171 l 0.013,0.031 0.017,0.028 c 1.371,2.266 1.955,3.725 2.395,4.821 0.114,0.285 0.218,0.545 0.324,0.789 0.261,0.601 0.538,1.116 0.998,1.613 0.455,0.491 1.067,0.94 1.963,1.452 l 0.254,0.145 0.251,-0.15 c 0.627,-0.376 1.106,-0.691 1.442,-0.982 0.335,-0.289 0.591,-0.609 0.661,-1.011 0.069,-0.399 -0.069,-0.764 -0.239,-1.087 -0.133,-0.251 -0.321,-0.539 -0.528,-0.856 -0.057,-0.086 -0.115,-0.174 -0.173,-0.265 -0.486,-0.75 -0.719,-1.141 -0.839,-1.378 -0.097,-0.192 -0.113,-0.265 -0.139,-0.388 0,-0.01 0,-0.02 -0.01,-0.03 -0.085,-0.394 -0.239,-0.947 -1.436,-3.169 -1.156,-2.148 -1.821,-3.422 -2.279,-4.299 -0.923,-1.7696 -1.005,-1.9266 -2.575,-4.374 l -0.021,-0.0334 -0.027,-0.0296 c -1.071,-1.2 -1.903,-2.4062 -2.709,-3.5757 -0.351,-0.5084 -0.697,-1.01 -1.056,-1.501 -1.166,-1.5973 -2.439,-3.0337 -4.361,-3.961 -0.565,-0.2891 -0.872,-0.6089 -1.039,-0.9376 -0.169,-0.3337 -0.222,-0.7336 -0.175,-1.2327 0.048,-0.5041 0.194,-1.0737 0.392,-1.7271 0.07,-0.2334 0.148,-0.481 0.229,-0.7383 0.14,-0.4409 0.288,-0.9101 0.421,-1.3845 l 0.01,-0.0174 v -0.0177 c 0.527,-2.57 0.149,-5.2483 -1.071,-7.5833 -1.218,-2.3312 -3.2,-4.1791 -5.615,-5.2364 -1.252,-0.6202 -2.316,-0.9808 -3.151,-1.1212 -0.419,-0.0703 -0.796,-0.0882 -1.12,-0.0464 -0.318,0.0411 -0.629,0.146 -0.859,0.3642 -0.249,0.2362 -0.347,0.5524 -0.311,0.8793 0.032,0.3052 0.177,0.6064 0.378,0.8887 0.403,0.5662 1.129,1.1944 2.169,1.8378 z m 0,0 c 0,2e-4 10e-4,4e-4 10e-4,6e-4 l 0.263,-0.4252 -0.265,0.4239 c 0,2e-4 10e-4,5e-4 10e-4,7e-4 z"
         fill="#000001"
         stroke="#000000"
         id="path263" /><path
         d="m 1456.7323,509.28863 c 0.246,0.1285 0.548,0.2663 0.873,0.4134 l 0.064,0.0289 c 0.312,0.1415 0.652,0.2951 1.007,0.4677 0.761,0.3692 1.578,0.8171 2.313,1.3863 1.456,1.1278 2.562,2.7045 2.254,5.1047 v 0.003 c -0.121,0.9919 -0.281,1.8561 -0.429,2.6501 l -0.023,0.1212 c -0.152,0.8198 -0.29,1.5814 -0.337,2.308 -0.098,1.4986 0.192,2.8423 1.406,4.4174 1.042,1.3567 1.967,1.7452 2.848,2.0997 l 0.039,0.0159 c 0.805,0.3241 1.562,0.6285 2.488,1.7416 1.64,2.0342 2.851,3.38 3.745,4.3649 0.037,0.0406 0.073,0.0805 0.108,0.1197 0.841,0.9269 1.35,1.488 1.684,2.0187 0.327,0.5196 0.487,1.0152 0.573,1.8381 0.075,0.7147 0.091,1.6409 0.115,3.0073 0,0.2596 0.01,0.5352 0.015,0.8282 v 0.003 c 0.125,4.9327 1.343,8.033 3.144,9.79 1.817,1.773 4.137,2.093 6.246,1.662 2.095,-0.428 4.039,-1.605 5.205,-2.9235 0.581,-0.6572 1.003,-1.3886 1.114,-2.1166 0.117,-0.7583 -0.111,-1.4868 -0.767,-2.034 -1.083,-0.9375 -2.385,-1.1439 -3.232,-0.6499 -0.442,0.2574 -0.736,0.7041 -0.731,1.2623 0,0.4944 0.24,1.0043 0.669,1.4944 -0.098,0.1386 -0.306,0.3352 -0.629,0.5516 -0.636,0.4267 -1.589,0.8445 -2.589,1.0064 -1.002,0.1622 -1.989,0.0593 -2.761,-0.4676 -0.759,-0.5183 -1.409,-1.5138 -1.608,-3.347 -0.187,-1.7655 -0.253,-3.2645 -0.299,-4.5774 -0.01,-0.1814 -0.012,-0.3598 -0.018,-0.5352 -0.037,-1.0863 -0.069,-2.058 -0.164,-2.9383 -0.224,-2.0907 -0.805,-3.7211 -2.592,-5.4396 -1.159,-1.1149 -2.081,-2.2542 -2.974,-3.3589 -0.389,-0.4802 -0.772,-0.9539 -1.167,-1.4163 -1.285,-1.5037 -2.664,-2.839 -4.65,-3.6172 -0.586,-0.2452 -0.917,-0.5405 -1.108,-0.8557 -0.194,-0.3198 -0.277,-0.7145 -0.268,-1.2158 0.01,-0.5062 0.112,-1.0853 0.259,-1.7519 0.052,-0.238 0.111,-0.4908 0.173,-0.7536 0.105,-0.4502 0.217,-0.9293 0.314,-1.4126 v -0.0177 -0.0179 c 0.329,-2.6026 -0.252,-5.2444 -1.646,-7.4797 -1.392,-2.2316 -3.509,-3.9231 -5.997,-4.7934 -1.296,-0.5229 -2.384,-0.8015 -3.228,-0.8778 -0.422,-0.0382 -0.801,-0.0273 -1.12,0.0391 -0.314,0.0651 -0.616,0.1935 -0.829,0.4286 -0.23,0.2545 -0.303,0.5771 -0.243,0.9004 0.056,0.3018 0.223,0.5911 0.445,0.8573 0.444,0.5339 1.217,1.1049 2.302,1.6672 z m 0,0 c 0,2e-4 0,3e-4 0,5e-4 l 0.23,-0.444 -0.232,0.4429 c 10e-4,2e-4 10e-4,4e-4 10e-4,6e-4 z"
         fill="#000001"
         stroke="#000000"
         id="path265" /><path
         d="m 1415.0123,679.62893 c -1.727,1.825 -3.009,5.771 -0.444,4.933 3.551,-1.431 6.906,-5.624 15.834,-5.525 12.381,0 16.87,18.152 17.708,8.928 -1.035,-14.65 -18.991,-23.48 -33.098,-8.336 z"
         fill="#000001"
         id="path267" /><path
         d="m 1423.5463,737.68693 c 2.663,0 2.811,-1.775 3.502,-4.488 -0.789,-5.229 -4.933,-4.933 -5.919,-1.924 -0.987,3.009 -0.494,6.264 2.417,6.412 z"
         fill="#000001"
         id="path269" /><path
         d="m 1350.8863,457.70426 c 1.48,0.39462 3.601,-1.72646 5.969,-2.12108 3.551,-0.59193 12.973,-0.8879 14.798,2.71301 5.87,11.29604 -14.009,25.40364 -16.426,40.99114 -1.529,9.8655 8.83,12.4306 24.664,16.8207 13.663,3.7489 -11.79,21.1615 -3.996,31.6683 1.283,1.6771 4.933,4.9326 7.893,8.0406 7.448,7.794 -2.22,18.202 2.663,19.238 4.884,1.035 8.485,-15.243 0,-23.48 -9.421,-9.4713 -10.408,-6.1663 -0.394,-23.6776 2.614,-4.5875 4.044,-12.6279 -1.678,-15.0942 -5.722,-2.4664 -4.932,-0.6413 -18.645,-5.9687 -20.915,-8.0403 18.843,-31.9149 9.421,-50.51134 -2.17,-5.32738 -6.758,-4.73545 -13.022,-5.32738 -12.628,-0.29596 -13.072,6.21527 -11.247,6.70855 z"
         fill="#000001"
         id="path271" /><path
         d="m 1361.6393,729.35093 c -0.394,-4.933 -4.291,-4.933 -4.933,-3.059 -3.107,5.574 3.355,10.803 4.933,3.059 z"
         fill="#000001"
         id="path273" /><path
         d="m 1276.8953,901.05993 c -112.418,37.44 -108.521,34.529 -105.315,40.745 22.839,47.502 22.05,45.282 26.144,45.726 11.247,-3.255 102.996,-33.69 103.588,-33.986 6.314,-2.171 2.664,-5.624 -14.206,-39.857 -5.92,-12.431 -5.722,-14.108 -10.211,-12.628 z m 21.309,48.588 -100.233,33.099 c -1.184,0 0.444,2.811 -21.852,-41.288 -1.135,-2.219 -7.104,0.79 63.287,-22.789 12.233,-4.094 23.874,-8.188 36.946,-12.48 3.404,-1.085 0.691,-4.439 14.798,24.664 8.929,18.942 9.323,18.054 7.104,18.794 z"
         fill="#000001"
         id="path275" /><path
         d="m 1271.1743,946.04693 c -0.641,0 -64.521,19.731 -69.059,21.901 -2.219,0.937 -4.242,3.897 -1.529,4.588 0.888,0 73.054,-21.063 76.852,-25.453 -1.973,-3.651 -3.65,-1.135 -6.264,-1.036 z"
         fill="#000001"
         id="path277" /><path
         d="m 1211.6363,941.75493 c 8.139,-1.43 7.843,-4.045 12.627,-3.798 9.126,-1.233 12.579,-4.933 20.866,-7.004 8.287,-2.072 10.655,-1.48 17.117,-4.933 1.578,-0.789 2.663,-3.552 -0.691,-4.242 -0.592,0 -4.39,1.134 -9.865,2.515 -19.485,4.933 -22.198,8.583 -27.229,8.485 -5.821,0 -5.574,2.367 -14.256,4.291 -19.731,4.39 -16.525,6.265 -21.803,6.511 -0.641,0 -1.677,1.53 -1.874,2.122 -0.444,1.775 4.933,2.811 7.498,1.381 5.487,-2.857 11.459,-4.662 17.61,-5.328 z"
         fill="#000001"
         id="path279" /><path
         d="m 1228.3083,695.61093 c 7.202,-9.57 2.96,-8.188 26.686,0 0.494,0.229 1.048,0.294 1.581,0.188 0.534,-0.107 1.019,-0.38 1.387,-0.781 0.368,-0.401 0.599,-0.908 0.66,-1.449 0.06,-0.541 -0.053,-1.087 -0.323,-1.559 -2.597,-5.635 -5.597,-11.075 -8.978,-16.278 -2.022,-2.565 8.386,-13.664 8.583,-19.731 0.296,-8.928 -18.004,5.919 -22,0.691 -3.206,-4.193 -8.089,-8.83 -11.296,-13.911 -1.43,-2.318 -4.192,-3.157 -4.636,-0.394 -3.799,25.206 2.318,18.991 -11.74,24.417 -7.843,3.058 -8.09,3.009 -8.534,5.524 -1.381,7.942 16.969,9.077 17.018,12.678 0.296,16.228 -0.345,15.242 0,18.645 0.069,0.457 0.261,0.886 0.554,1.243 0.294,0.357 0.677,0.628 1.112,0.784 0.434,0.157 0.903,0.193 1.356,0.106 0.454,-0.088 0.875,-0.296 1.22,-0.604 2.714,-2.978 5.172,-6.179 7.35,-9.569 z m -11.099,-16.525 c -16.87,-6.314 -16.87,-4.933 1.677,-11.641 4.045,-1.48 2.121,-10.31 4.933,-17.906 17.61,16.475 2.762,15.094 28.511,9.175 -3.798,10.161 -11.69,13.072 -7.152,18.35 2.537,3.551 4.733,7.333 6.56,11.296 1.234,2.072 -4.932,0 -13.663,-3.256 -4.933,-1.825 -3.798,-5.524 -15.44,10.754 -4.538,6.363 2.023,-14.009 -5.426,-16.772 z"
         fill="#000001"
         id="path281" /><path
         d="m 1133.3533,609.38593 c 2.368,-2.565 2.417,-2.565 4.588,0 2.209,2.628 3.884,5.66 4.933,8.929 0.887,3.157 -2.467,1.48 -3.503,1.529 -4.933,0 -2.91,3.699 -1.677,4.291 12.135,5.87 17.363,-8.089 17.709,-3.502 0.542,6.215 0.493,12.973 0.789,21.112 0,3.7 3.009,6.512 5.525,4.242 2.515,-2.269 9.224,-9.076 18.744,-18.349 15.588,-15.243 16.229,-14.799 16.032,-17.808 -2.27,-33.049 -4.933,-24.663 5.919,-36.453 13.121,-14.157 39.462,-42.9639 47.996,-60.2285 13.17,-26.0943 18.399,-53.56969 6.116,-54.95086 -16.426,-1.82512 -44.987,12.52916 -59.193,25.00896 -10.188,8.7244 -19.702,18.206 -28.462,28.3634 -29.596,32.5068 -21.211,27.2288 -34.529,29.0046 -26.785,3.4529 -17.413,-2.3184 -50.7088,33.9864 -4.0942,4.489 -1.1839,7.547 1.4798,7.547 7.9947,-0.835 16.039,-1.098 24.072,-0.789 -1.394,1.443 -2.418,3.201 -2.985,5.125 -0.567,1.924 -0.66,3.957 -0.271,5.924 1.029,3.91 3.091,7.471 5.969,10.31 1.628,1.036 2.812,-0.789 2.17,-2.713 -0.296,-0.987 -5.376,-8.484 -3.897,-10.31 1.48,-1.825 5.229,0 16.13,8.287 3.009,2.27 -2.762,4.44 -7.645,11.642 -2.812,4.242 2.17,6.412 3.502,7.399 1.332,0.986 2.565,1.184 3.897,0.247 z m -24.17,33.198 c -34.5295,54.26 -42.2245,111.085 -15.5877,181.722 0.4933,1.234 2.1707,6.808 3.8477,5.673 5.327,-3.502 -22.8388,-47.897 -13.5652,-113.207 8.5337,-60.08 48.1932,-94.758 49.3272,-99.986 0.592,-2.565 -0.345,-3.651 -3.403,-2.467 -7.557,8.903 -14.449,18.35 -20.619,28.265 z m 15.39,-51.547 c -9.619,-7.252 -13.417,-4.045 -11.592,-7.153 0.888,-1.529 1.776,-3.255 3.206,-2.614 6.857,0.592 9.225,3.206 17.512,8.829 1.43,0.987 0.296,2.072 -1.974,4.292 -1.331,1.48 -1.035,1.184 -6.955,-3.354 z m -0.592,22.296 c -3.65,-2.516 -5.278,2.614 38.673,-48.588 2.17,-2.466 4.933,-4.933 6.264,-1.628 0.148,0.148 -44.69,50.117 -44.937,50.216 z m 26.39,4.932 c -4.341,3.7 -0.444,0 -7.941,-9.865 -3.453,-4.538 -3.897,-4.538 -3.256,-5.278 3.995,-4.686 3.157,-6.906 12.726,11.789 0.987,1.332 0,2.072 -1.381,3.256 z m 11.444,22.296 c -1.578,1.628 -0.838,1.579 -2.565,-23.134 0,-2.319 19.731,-17.758 26.095,-25.355 6.363,-7.596 4.932,-6.313 7.053,16.377 1.036,2.023 0.642,1.233 -30.435,32.014 z m 46.023,-158.4889 c 9.959,-7.3506 21.151,-12.8634 33.049,-16.278 18.695,-4.93277 16.624,0 17.512,7.3497 -0.48,6.9803 -2.01,13.8483 -4.539,20.3723 -11.887,29.0046 -10.852,26.3902 -14.107,20.5696 -15.094,-26.8835 -35.96,-29.4979 -31.915,-32.0136 z m -6.363,4.9328 c 6.314,-5.9687 42.175,30.879 36.995,37.7848 -15.143,20.323 -67.825,79.5163 -81.735,88.0493 -2.898,-5.638 -6.194,-11.061 -9.866,-16.228 -1.233,-1.826 -1.381,-0.592 16.031,-19.978 9.866,-11.247 12.678,-12.529 9.225,-16.771 -1.48,-1.826 -5.426,-4.489 -7.942,-1.924 -2.516,2.565 -3.897,4.291 -16.278,18.498 -11.395,13.022 -9.027,11.542 -13.072,8.484 -16.278,-12.283 -19.188,-2.614 -8.78,-15.883 23.342,-28.9302 48.483,-56.3613 75.274,-82.1308 z m -89.234,62.6459 c 2.023,-2.3677 2.023,-1.9731 26.242,-4.9327 3.799,-0.4933 -6.955,8.2379 -14.798,20.0759 -1.776,2.565 -8.484,11.543 -11.099,11.888 0,0 -24.6633,0.74 -24.6633,0.592 -1.0359,-0.888 12.1343,-13.466 24.3183,-27.6232 z"
         fill="#000001"
         id="path283" /><path
         d="m 1235.1153,948.11893 c 9.865,-2.861 10.507,-3.749 14.009,-3.799 0.826,0.054 1.644,-0.189 2.304,-0.686 0.661,-0.497 1.121,-1.217 1.297,-2.027 0,-5.672 -19.731,3.355 -29.054,4.933 -8.484,1.431 -27.771,7.054 -30.583,10.112 -1.973,2.171 -0.888,3.404 1.776,3.552 9.865,-3.354 8.533,-3.798 12.085,-4.933 20.619,-5.623 6.413,-0.888 28.166,-7.152 z"
         fill="#000001"
         id="path285" /><path
         d="m 1217.7023,791.35493 c -3.058,0.395 -13.22,2.615 -14.798,3.059 -2.91,0.74 -12.036,-19.435 -14.354,-11.938 -5.673,18.449 2.121,15.44 -12.332,16.673 -5.92,0.494 -6.018,2.072 -5.87,4.933 0,1.924 0.69,2.318 4.242,4.489 16.031,9.865 9.027,2.713 7.695,20.964 0,2.516 1.282,3.699 3.305,3.058 4.587,-1.529 11.839,-14.798 15.193,-13.072 4.853,1.679 9.793,3.095 14.798,4.242 2.812,0.79 3.996,-0.69 3.65,-2.861 -0.542,-3.452 -4.341,-4.932 -8.139,-11.937 -0.838,-1.628 -0.641,-0.888 8.781,-12.184 1.627,-2.071 2.367,-5.968 -2.171,-5.426 z m -10.852,19.731 c 4.588,8.09 6.462,7.35 -2.466,5.377 -10.359,-2.318 -5.673,-3.009 -16.426,7.893 -1.283,1.332 0.246,-4.095 0.641,-9.225 0.444,-6.116 -11.395,-8.09 -13.121,-11.296 0.838,0 -0.641,0 6.955,-0.74 9.372,-0.789 4.933,-6.067 9.027,-14.453 3.354,2.861 6.807,11.444 9.865,10.803 25.009,-5.821 0.099,2.072 5.525,11.641 z"
         fill="#000001"
         id="path287" /><path
         d="m 1199.2553,543.82973 c 23.825,-1.2332 22.148,-36.1078 -0.74,-35.5652 -25.206,3.0583 -20.619,36.4531 0.74,35.5652 z m -2.614,-30.7311 c 1.92,-0.3407 3.893,-0.252 5.775,0.2594 1.883,0.5114 3.628,1.433 5.113,2.6986 1.484,1.2661 2.67,2.8446 3.472,4.6228 0.802,1.7779 1.201,3.7115 1.167,5.662 -0.033,1.9505 -0.498,3.8693 -1.36,5.6188 -0.863,1.7499 -2.102,3.2869 -3.628,4.5012 -1.527,1.2143 -3.304,2.0754 -5.202,2.5222 -1.899,0.4469 -3.873,0.4678 -5.781,0.0613 -3,-0.6388 -5.684,-2.3003 -7.593,-4.7005 -1.909,-2.3998 -2.924,-5.389 -2.871,-8.4551 0.052,-3.0666 1.169,-6.0192 3.159,-8.3524 1.99,-2.3332 4.729,-3.9023 7.749,-4.4383 z"
         fill="#000001"
         id="path289" /><path
         d="m 1144.8463,871.95693 c -3.255,0.592 -3.897,4.933 0.296,4.933 21.408,-0.346 22.494,-39.117 1.875,-38.821 -2.242,-0.082 -4.48,0.234 -6.61,0.937 -0.296,-2.811 4.933,-15.094 -0.592,-24.663 -6.117,-10.556 -23.825,-9.866 -29.597,4.686 -2.215,6.294 -3.163,12.965 -2.791,19.628 0.372,6.663 2.059,13.182 4.962,19.192 1.134,2.22 3.995,0.937 3.305,-2.022 -14.798,-42.076 14.157,-52.928 20.668,-37.735 5.426,12.677 -6.314,26.685 -1.233,29.596 3.601,2.022 5.426,-5.92 12.381,-4.933 9.027,1.578 10.655,11.395 9.175,17.955 -2.516,10.803 -9.323,10.754 -11.839,11.247 z"
         fill="#000001"
         id="path291" /><path
         d="m 1093.7924,834.46793 c -27.5741,-45.283 -34.5292,-124.454 -0.4439,-188.974 7.8398,-13.747 16.6258,-26.933 26.2918,-39.462 4.587,-4.489 0,-6.857 -2.516,-3.996 -28.5606,33.79 -50.9553,82.723 -50.9553,126.821 0,64.619 16.1794,96.09 24.2692,105.759 3.9462,4.538 5.9681,4.143 3.3542,-0.148 z"
         fill="#000001"
         id="path293" /><path
         d="m 1070.9035,873.43693 c -24.6638,7.744 -21.8521,-20.866 2.565,-10.951 0.3013,0.181 0.6388,0.296 0.9886,0.333 0.3502,0.041 0.7042,0 1.038,-0.111 0.3333,-0.111 0.6383,-0.296 0.8932,-0.539 0.2553,-0.242 0.4538,-0.538 0.5825,-0.867 1.3318,-3.009 -1.2825,-3.749 -3.7983,-4.587 -13.4664,-4.489 1.5292,-30.189 20.175,1.184 1.5288,2.565 4.1438,0.789 3.5518,-1.184 -3.9464,-14.059 -19.7312,-24.665 -29.5967,-16.032 -2.0977,1.772 -3.5011,4.23 -3.9614,6.939 -0.4604,2.709 0.052,5.492 1.4457,7.859 -11.6413,0.296 -14.7983,4.933 -16.1301,11.001 -2.6637,14.304 20.3722,15.982 26.2422,10.358 2.2691,-2.269 0.3946,-4.784 -3.9955,-3.403 z"
         fill="#000001"
         id="path295" /><path
         d="m 1037.4107,785.78193 c -0.7399,-1.48 -1.2332,-4.341 -4.6368,-2.269 -13.861,8.435 -11.0494,7.103 -14.7983,3.107 -5.6233,-5.87 -7.0538,-8.139 -9.8655,-7.448 -1.2331,0.345 -0.9372,2.861 -0.6412,4.193 3.4036,15.784 4.4888,11.592 -1.9238,13.959 -1.4798,0.592 -2.7623,1.283 -8.78025,3.799 -0.56685,0.259 -1.04698,0.677 -1.38364,1.201 -0.33666,0.525 -0.51587,1.135 -0.51587,1.758 0,0.624 0.17921,1.234 0.51587,1.759 0.33666,0.524 0.81679,0.941 1.38364,1.201 18.34985,6.856 14.20625,5.574 15.43945,13.318 1.4305,8.879 1.6772,11.099 3.5516,11.296 0.7642,0.103 1.5411,-0.049 2.2099,-0.432 0.6688,-0.384 1.1925,-0.977 1.4897,-1.689 7.6951,-18.695 2.6637,-13.762 9.8655,-12.48 12.3812,2.22 13.0225,3.453 14.7982,1.283 1.7758,-2.171 -1.8251,-5.377 -3.6009,-7.399 -11.6413,-13.417 -8.1883,-4.538 -3.1076,-25.157 z m -3.6502,26.982 c -2.6358,-0.197 -5.1955,-0.971 -7.4978,-2.269 -6.2153,-2.023 -6.2153,10.408 -8.6817,12.529 -0.5972,-2.607 -0.9277,-5.268 -0.9865,-7.942 0,-5.426 -2.9597,-5.82 -11.9372,-10.753 -1.9731,-1.135 2.5156,-1.579 7.5964,-4.144 5.0807,-2.565 1.0358,-7.497 0.9372,-10.95 0,-2.072 3.4529,2.91 5.6233,5.623 3.3543,4.193 3.7489,-2.466 13.1705,-5.278 -1.5785,8.139 -7.0539,10.26 -1.7758,15.883 7.6951,8.238 5.6233,7.498 3.5516,7.301 z"
         fill="#000001"
         id="path297" /><path
         d="m 1302.8653,681.56393 c 10.038,11.034 18.29,14.953 41.139,14.916 11.387,-4.985 17.715,-8.251 28.095,-21.877 9.628,-11.836 32.287,-19.085 51.173,-15.911 6.924,24.506 10.81,38.23 26.088,34.805 4.297,-2.195 8.192,-3.181 33.112,-1.989 -5.537,1.545 -8.334,2.557 -12.04,4.972 -1.569,10.675 -1.947,16.848 0,28.839 8.592,14.953 14.353,18.42 26.088,16.905 0.482,12.112 -0.785,18.497 -7.024,28.838 10.171,11.511 14.948,11.245 23.078,7.955 2,-5.39 3.742,-9.112 14.048,-23.866 5.948,-5.911 13.206,-5.863 27.091,-4.972 17.342,-10.605 2.842,-34.546 -36.122,-56.682 15.176,4.978 24.856,12.902 44.149,35.799 2.313,-1.331 3.609,-2.138 6.021,-15.911 1.487,-26.219 -12.732,-36.021 -55.187,-48.726 9.734,1.147 9.255,-0.376 46.156,16.905 5.171,-18.402 5.296,-28.363 -36.122,-40.771 -5.789,-6.752 -17.128,-12.958 -106.36,-8.95 19.053,-6.333 34.022,-6.718 70.238,-2.983 -0.358,-0.629 14.757,-23.389 10.034,-19.889 -4.723,3.5 -7.024,4.177 -12.041,6.961 -5.017,2.784 -34.13,-14.682 -99.336,-13.922 -24.888,12.059 -33.305,27.336 -41.139,65.632 -2.307,-2.605 -3.237,-11.35 -4.013,-44.749 -9.445,10.938 -11.251,23.217 -9.031,54.693 -10.268,-14.794 -13.678,-23.317 -17.058,-38.782 -5.506,15.179 -6.949,24.008 6.021,42.76 -6.326,-2.778 -9.96,-3.62 -17.058,0 z"
         fill="#f1b745"
         stroke="#000000"
         stroke-width="5"
         id="path299" /><path
         d="m 1023.5,43.0121 c -0.5,-4 4.56,-18.7911 15.5,-27 m -7.5,23.5 c 3.22,-8.6066 6.53,-11.9786 14.5,-16"
         stroke="#000000"
         stroke-width="2"
         id="path301" /><path
         d="m 1525.3653,764.98593 c -19.864,-12.792 -31.556,-22.929 -54.5,-40 v 13 c 21.61,10.191 32.169,17.249 48.5,32 z"
         fill="#040404"
         stroke="#000000"
         stroke-width="2"
         id="path303" /><path
         d="m 1355.3793,805.35493 c 47.155,27.914 58.786,14.178 79.157,-11.062 -30.4,9.16 -47.697,11.921 -79.157,11.062 z"
         fill="#ffffff"
         stroke="#000000"
         stroke-width="4"
         id="path305" /></g></g><g
     inkscape:groupmode="layer"
     id="layer2"
     inkscape:label="Layer 2"
     transform="translate(-45.067579,-23.400958)"><path
       style="fill:#ff2a2a;stroke-width:0.264583"
       id="path349"
       d="m 45.230741,29.348902 c 0.26635,-0.267824 0.539339,-0.528754 0.818906,-0.782717 0.348007,-0.314256 0.721649,-0.597567 1.107557,-0.863198 0.386588,-0.258355 0.78582,-0.496824 1.182758,-0.738695 0.318739,-0.189722 0.640279,-0.374695 0.961025,-0.560993 0.227121,-0.134083 0.452888,-0.270436 0.68198,-0.401133 0.303408,-0.166277 0.617667,-0.311208 0.926123,-0.467722 0.43347,-0.219681 0.876586,-0.419243 1.314681,-0.629341 0.35352,-0.172143 0.706434,-0.345524 1.063331,-0.510587 0.396912,-0.184611 0.809882,-0.327557 1.231551,-0.442942 0.315674,-0.0826 0.63864,-0.12995 0.960657,-0.179554 0.274539,-0.04336 0.549468,-0.08409 0.824769,-0.122293 0.215422,-0.02934 0.432258,-0.04549 0.649386,-0.05452 0.237881,-0.01164 0.475535,0.0053 0.712393,0.0258 0.241673,0.02143 0.482174,0.05423 0.719556,0.104439 -0.04854,-0.06771 0.338373,0.144341 0.247454,0.08817 -0.469953,-0.290324 -0.12386,-0.05807 -0.03585,0.01225 0.289992,0.24271 0.472123,0.575143 0.645245,0.904647 0.183997,0.358272 0.325165,0.734642 0.413795,1.127202 0.08388,0.383225 0.02328,0.768347 -0.04324,1.148466 -0.08991,0.47666 -0.214034,0.945732 -0.338669,1.414198 -0.114083,0.415893 -0.225756,0.832435 -0.33755,1.248947 -0.105918,0.408678 -0.22357,0.814089 -0.342585,1.219094 -0.128061,0.427868 -0.252786,0.856708 -0.382887,1.283968 -0.146862,0.457615 -0.252616,0.92606 -0.355798,1.394915 -0.09179,0.44642 -0.20506,0.887859 -0.33388,1.324916 -0.118018,0.393822 -0.254707,0.781585 -0.402543,1.165093 -0.134075,0.336881 -0.285229,0.666658 -0.443206,0.992907 -0.113146,0.242824 -0.2379,0.479669 -0.377597,0.708216 -0.10237,0.185182 -0.243621,0.331523 -0.411322,0.457449 -0.18025,0.127076 -0.376483,0.227554 -0.57572,0.320807 -0.145097,0.06893 -0.294227,0.12846 -0.447283,0.177083 -0.15662,0.05158 -0.31614,0.0736 -0.480158,0.06052 -0.029,-0.0059 -0.05861,-0.0094 -0.08701,-0.01767 -0.11344,-0.03316 -0.214807,-0.100962 -0.193706,-0.08949 0.524856,0.285239 0.273457,0.152657 0.09509,-0.02854 C 53.960707,38.378779 53.815107,38.05848 53.682818,37.736821 53.556794,37.412285 53.44663,37.081956 53.326334,36.755312 53.21173,36.440749 53.060822,36.142121 52.893225,35.852969 52.700325,35.5246 52.444544,35.24217 52.180876,34.97007 c -0.284974,-0.295254 -0.610227,-0.546433 -0.936212,-0.793972 -0.3967,-0.295521 -0.81448,-0.560972 -1.228151,-0.83171 -0.443275,-0.293341 -0.886126,-0.5872 -1.332939,-0.875133 -0.435816,-0.277987 -0.869119,-0.559792 -1.294508,-0.853519 -0.322048,-0.223563 -0.631344,-0.464561 -0.927291,-0.721524 -0.199443,-0.175237 -0.386561,-0.363623 -0.565607,-0.559459 -0.109702,-0.119108 -0.214572,-0.239731 -0.271338,-0.392843 -0.03,-0.214498 -2.65e-4,-0.423466 -0.06378,-0.633791 -0.03351,-0.04281 -0.06702,-0.08562 -0.100528,-0.128423 0,0 -0.01765,-0.0094 -0.01765,-0.0094 v 0 c -0.04221,0.0028 -0.08443,0.0056 -0.126645,0.0084 -0.144547,0.151019 -0.142325,0.362363 -0.122595,0.560451 0.04688,0.162909 0.147418,0.290033 0.263681,0.411522 0.181314,0.198692 0.370427,0.390274 0.572426,0.568119 0.298776,0.26036 0.610973,0.50437 0.936453,0.730684 0.426657,0.295505 0.862026,0.57786 1.299509,0.857043 0.44408,0.286512 0.884111,0.57907 1.324354,0.871424 0.411191,0.269849 0.827447,0.532932 1.222644,0.826154 0.324591,0.245327 0.647121,0.495482 0.93372,0.785471 0.26465,0.268237 0.520743,0.547354 0.715883,0.871894 0.169463,0.286264 0.321112,0.582653 0.436899,0.89512 0.123468,0.326732 0.233259,0.658371 0.359042,0.984245 0.130233,0.322379 0.269682,0.646607 0.498121,0.913527 0.2702,0.295084 0.62829,0.541231 1.0254,0.612971 0.171511,0.0075 0.340027,-0.0149 0.504262,-0.06643 0.153905,-0.05039 0.302545,-0.11452 0.448595,-0.184409 0.199737,-0.09752 0.397196,-0.201462 0.578475,-0.330894 0.17404,-0.130048 0.319958,-0.279495 0.422211,-0.473913 0.135234,-0.233103 0.263671,-0.470101 0.372745,-0.716788 0.149469,-0.332275 0.296098,-0.665951 0.426614,-1.006234 0.146236,-0.386686 0.278207,-0.778222 0.390065,-1.176378 0.125468,-0.440084 0.238805,-0.883189 0.326935,-1.332481 0.09538,-0.469942 0.198292,-0.938527 0.348411,-1.394661 0.127344,-0.428559 0.25019,-0.858433 0.378233,-1.286785 0.120121,-0.406059 0.23228,-0.814298 0.33415,-1.22536 0.104249,-0.420108 0.207846,-0.840361 0.31963,-1.258551 0.120666,-0.472702 0.237236,-0.947021 0.320307,-1.428033 0.0621,-0.38663 0.124862,-0.78068 0.03618,-1.168808 -0.09782,-0.39951 -0.247647,-0.781939 -0.436576,-1.147519 -0.170037,-0.330006 -0.346165,-0.665297 -0.629983,-0.913365 -0.234921,-0.196369 -0.501224,-0.3801 -0.806842,-0.435798 -0.234709,-0.04373 -0.47177,-0.07247 -0.709668,-0.09241 -0.237918,-0.01982 -0.476448,-0.03606 -0.715293,-0.02262 -0.215019,0.01138 -0.429511,0.02931 -0.642326,0.06319 -0.27169,0.03906 -0.542579,0.08376 -0.812837,0.131688 -0.310081,0.05699 -0.618869,0.122002 -0.921811,0.210146 -0.417563,0.123433 -0.826733,0.272788 -1.223471,0.452797 -0.357634,0.160705 -0.707779,0.336254 -1.056166,0.516075 -0.432255,0.215387 -0.866174,0.427302 -1.300226,0.639022 -0.310634,0.150833 -0.619427,0.305787 -0.922382,0.471588 -0.228352,0.129918 -0.452507,0.266695 -0.675175,0.406122 -0.311264,0.194284 -0.625067,0.384479 -0.938112,0.575874 -0.398195,0.240244 -0.796803,0.480573 -1.183029,0.739767 -0.383839,0.268819 -0.75798,0.55151 -1.104627,0.867555 -0.282758,0.25396 -0.559067,0.51493 -0.842473,0.768051 0,0 0.163158,0.101185 0.163158,0.101185 z" /></g></svg>
